<svg xmlns="http://www.w3.org/2000/svg" width="85" height="85" viewBox="0 0 85 85" fill="none">
  <g filter="url(#filter0_d_4294_599)">
    <circle cx="42.5" cy="38.5" r="32.5" fill="white"/>
  </g>
  <path d="M32.8516 27.3281C34.2538 27.3281 35.3906 26.1913 35.3906 24.7891C35.3906 23.3868 34.2538 22.25 32.8516 22.25C31.4493 22.25 30.3125 23.3868 30.3125 24.7891C30.3125 26.1913 31.4493 27.3281 32.8516 27.3281Z" fill="#505887"/>
  <path d="M52.1484 27.3281C50.7462 27.3281 49.6094 26.1913 49.6094 24.7891C49.6094 23.3868 50.7462 22.25 52.1484 22.25C53.5507 22.25 54.6875 23.3868 54.6875 24.7891C54.6875 26.1913 53.5507 27.3281 52.1484 27.3281Z" fill="#505887"/>
  <path d="M28.7891 32.4062C30.1913 32.4062 31.3281 31.2695 31.3281 29.8672C31.3281 28.4649 30.1913 27.3281 28.7891 27.3281C27.3868 27.3281 26.25 28.4649 26.25 29.8672C26.25 31.2695 27.3868 32.4062 28.7891 32.4062Z" fill="#FFD400"/>
  <path d="M56.2109 32.4062C54.8087 32.4062 53.6719 31.2695 53.6719 29.8672C53.6719 28.4649 54.8087 27.3281 56.2109 27.3281C57.6132 27.3281 58.75 28.4649 58.75 29.8672C58.75 31.2695 57.6132 32.4062 56.2109 32.4062Z" fill="#FFD400"/>
  <path fill-rule="evenodd" clip-rule="evenodd" d="M51.6406 41.5469C51.6406 39.864 50.2766 38.5 48.5938 38.5H36.4062C34.7234 38.5 33.3594 39.864 33.3594 41.5469V51.7031C33.3594 53.386 34.7234 54.75 36.4062 54.75H48.5938C50.2766 54.75 51.6406 53.386 51.6406 51.7031V41.5469ZM45.5469 43.5781V49.6719C45.5469 50.2325 46.0019 50.6875 46.5625 50.6875C47.1231 50.6875 47.5781 50.2325 47.5781 49.6719V43.5781C47.5781 43.0175 47.1231 42.5625 46.5625 42.5625C46.0019 42.5625 45.5469 43.0175 45.5469 43.5781ZM37.4219 49.6719V45.6073C37.4219 43.9255 38.7848 42.5625 40.4667 42.5625H40.4708C42.1527 42.5625 43.5156 43.9255 43.5156 45.6073V49.6719C43.5156 50.2325 43.0606 50.6875 42.5 50.6875C41.9394 50.6875 41.4844 50.2325 41.4844 49.6719V48.6562H39.4531V49.6719C39.4531 50.2325 38.9981 50.6875 38.4375 50.6875C37.8769 50.6875 37.4219 50.2325 37.4219 49.6719ZM41.4844 46.625V45.6073C41.4844 45.0477 41.0304 44.5938 40.4708 44.5938C40.4698 44.5938 40.4677 44.5938 40.4667 44.5938C39.9071 44.5938 39.4531 45.0477 39.4531 45.6073V46.625H41.4844Z" fill="#505887"/>
  <path fill-rule="evenodd" clip-rule="evenodd" d="M41.5073 31.8984V26.8203C41.5073 25.1374 40.1423 23.7734 38.4589 23.7734C36.6854 23.7734 34.3944 23.7734 34.3944 23.7734C33.8335 23.7734 33.3782 24.2284 33.3782 24.7891C33.3782 25.3497 33.8335 25.8047 34.3944 25.8047H38.4589C39.0198 25.8047 39.475 26.2597 39.475 26.8203V31.8984C39.475 32.4591 39.9303 32.9141 40.4912 32.9141C41.0521 32.9141 41.5073 32.4591 41.5073 31.8984Z" fill="#FFD400"/>
  <path fill-rule="evenodd" clip-rule="evenodd" d="M45.525 31.8984V26.8203C45.525 26.2597 45.9802 25.8047 46.5411 25.8047C48.3146 25.8047 50.6056 25.8047 50.6056 25.8047C51.1665 25.8047 51.6218 25.3497 51.6218 24.7891C51.6218 24.2284 51.1665 23.7734 50.6056 23.7734H46.5411C44.8577 23.7734 43.4927 25.1374 43.4927 26.8203V31.8984C43.4927 32.4591 43.9479 32.9141 44.5088 32.9141C45.0697 32.9141 45.525 32.4591 45.525 31.8984Z" fill="#FFD400"/>
  <path fill-rule="evenodd" clip-rule="evenodd" d="M33.839 31.9484H35.8682C35.8682 30.2639 34.5054 28.8984 32.8243 28.8984C31.8097 28.8984 30.7951 28.8984 30.7951 28.8984C30.2351 28.8984 29.7805 29.3539 29.7805 29.9151C29.7805 30.4763 30.2351 30.9317 30.7951 30.9317H32.8243C33.3849 30.9317 33.839 31.3869 33.839 31.9484Z" fill="#505887"/>
  <path fill-rule="evenodd" clip-rule="evenodd" d="M49.1318 31.9484H51.161C51.161 31.3869 51.6151 30.9317 52.1757 30.9317C53.1903 30.9317 54.2049 30.9317 54.2049 30.9317C54.7649 30.9317 55.2195 30.4763 55.2195 29.9151C55.2195 29.3539 54.7649 28.8984 54.2049 28.8984H52.1757C50.4946 28.8984 49.1318 30.2639 49.1318 31.9484Z" fill="#505887"/>
  <path fill-rule="evenodd" clip-rule="evenodd" d="M31.3281 46.4564C30.1571 46.1944 29.0745 45.6327 28.2091 44.8253C26.9508 43.6512 26.25 42.0557 26.25 40.3962C26.25 38.7356 26.9508 37.1411 28.2091 35.967C28.8632 35.3556 29.6412 34.8864 30.4872 34.5807C31.6826 32.1107 34.3334 30.375 37.4219 30.375C39.3749 30.375 41.1553 31.0697 42.5 32.2041C43.8447 31.0697 45.6251 30.375 47.5781 30.375C50.6666 30.375 53.3174 32.1107 54.5128 34.5807C55.3588 34.8864 56.1368 35.3556 56.7909 35.967C58.0492 37.1411 58.75 38.7356 58.75 40.3962C58.75 42.0557 58.0492 43.6512 56.7909 44.8253C55.9255 45.6327 54.8429 46.1944 53.6719 46.4564V41.5469C53.6719 38.7427 51.3979 36.4687 48.5938 36.4687C45.4717 36.4687 39.5283 36.4687 36.4062 36.4687C33.6021 36.4687 31.3281 38.7427 31.3281 41.5469V46.4564Z" fill="#FFD400"/>
  <defs>
    <filter id="filter0_d_4294_599" x="0" y="0" width="85" height="85" filterUnits="userSpaceOnUse" color-interpolation-filters="sRGB">
      <feFlood flood-opacity="0" result="BackgroundImageFix"/>
      <feColorMatrix in="SourceAlpha" type="matrix" values="0 0 0 0 0 0 0 0 0 0 0 0 0 0 0 0 0 0 127 0" result="hardAlpha"/>
      <feOffset dy="4"/>
      <feGaussianBlur stdDeviation="5"/>
      <feComposite in2="hardAlpha" operator="out"/>
      <feColorMatrix type="matrix" values="0 0 0 0 0 0 0 0 0 0.305882 0 0 0 0 1 0 0 0 0.15 0"/>
      <feBlend mode="normal" in2="BackgroundImageFix" result="effect1_dropShadow_4294_599"/>
      <feBlend mode="normal" in="SourceGraphic" in2="effect1_dropShadow_4294_599" result="shape"/>
    </filter>
  </defs>
</svg>
