<svg width="80" height="80" viewBox="0 0 80 80" fill="none" xmlns="http://www.w3.org/2000/svg">
  <!-- Digital Transformation Icon -->
  <circle cx="40" cy="40" r="35" fill="#FFE047" stroke="#ffffff" stroke-width="2"/>
  
  <!-- Digital transformation arrows and gears -->
  <g transform="translate(40,40)">
    <!-- Central gear -->
    <circle cx="0" cy="0" r="8" fill="none" stroke="#1f2937" stroke-width="2.5"/>
    <path d="M-6,-6 L-4,-4 M6,-6 L4,-4 M6,6 L4,4 M-6,6 L-4,4" stroke="#1f2937" stroke-width="2" stroke-linecap="round"/>
    
    <!-- Transformation arrows -->
    <path d="M-25,-10 L-15,-10 M-18,-13 L-15,-10 L-18,-7" stroke="#1f2937" stroke-width="2.5" stroke-linecap="round" stroke-linejoin="round"/>
    <path d="M15,10 L25,10 M22,7 L25,10 L22,13" stroke="#1f2937" stroke-width="2.5" stroke-linecap="round" stroke-linejoin="round"/>
    
    <!-- Digital elements -->
    <rect x="-30" y="-15" width="4" height="4" fill="#1f2937"/>
    <rect x="-30" y="-8" width="4" height="4" fill="#1f2937"/>
    <rect x="26" y="5" width="4" height="4" fill="#1f2937"/>
    <rect x="26" y="12" width="4" height="4" fill="#1f2937"/>
    
    <!-- Network nodes -->
    <circle cx="-20" cy="15" r="3" fill="#1f2937"/>
    <circle cx="20" cy="-15" r="3" fill="#1f2937"/>
    <circle cx="0" cy="-20" r="2" fill="#1f2937"/>
    <circle cx="0" cy="20" r="2" fill="#1f2937"/>
    
    <!-- Connection lines -->
    <line x1="-20" y1="15" x2="-8" y2="8" stroke="#1f2937" stroke-width="1.5"/>
    <line x1="20" y1="-15" x2="8" y2="-8" stroke="#1f2937" stroke-width="1.5"/>
  </g>
</svg>
