<svg xmlns="http://www.w3.org/2000/svg" width="130" height="106" viewBox="0 0 130 106" fill="none">
  <path d="M24.6829 88.2327C24.6829 88.2327 3.92197 91.4235 6.89167 73.5008C6.89167 73.5008 21.5373 67.0901 24.7149 86.5383L24.6829 88.2327Z" fill="#FFD400"/>
  <path d="M101.494 95.1592H56.0114C51.7706 95.1592 48.3008 91.7293 48.3008 87.5373V31.1859C48.3008 26.9938 51.7707 23.564 56.0114 23.564H101.494C105.735 23.564 109.205 26.9938 109.205 31.1859V87.5373C109.205 91.7293 105.735 95.1592 101.494 95.1592Z" fill="#FFFCED"/>
  <path d="M97.0077 95.1593H22.7572C18.1582 95.1593 14.3951 91.4397 14.3951 86.8935V31.747C14.3951 27.2008 18.158 23.4812 22.7572 23.4812H97.0077C101.607 23.4812 105.37 27.2008 105.37 31.747V86.8935C105.37 91.4397 101.607 95.1593 97.0077 95.1593Z" fill="#FFE047"/>
  <path d="M67.5717 30.6225H59.3792C58.9521 30.6225 58.6027 30.2771 58.6027 29.8549V29.4431C58.6027 29.0209 58.9521 28.6755 59.3792 28.6755H67.5717C67.9988 28.6755 68.3482 29.0209 68.3482 29.4431V29.8549C68.3482 30.277 67.9987 30.6225 67.5717 30.6225Z" fill="white"/>
  <path d="M102.978 31.9368H16.41V85.3115H102.978V31.9368Z" fill="white"/>
  <path d="M96.6742 85.3116H22.6722C21.0683 85.3116 19.7681 84.0263 19.7681 82.4409V37.1893C19.7681 35.6038 21.0683 34.3186 22.6722 34.3186H96.6742C98.2781 34.3186 99.5783 35.6038 99.5783 37.1893V82.4409C99.5783 84.0263 98.2781 85.3116 96.6742 85.3116Z" fill="#D9F6FF"/>
  <path d="M67.0469 30.125H59.9039C59.6032 30.125 59.3572 29.8819 59.3572 29.5846C59.3572 29.2874 59.6032 29.0442 59.9039 29.0442H67.0469C67.3476 29.0442 67.5936 29.2874 67.5936 29.5846C67.5938 29.8819 67.3476 30.125 67.0469 30.125Z" fill="#0037BB"/>
  <path d="M63.2332 27.7928C64.0978 27.7928 64.7987 27.0999 64.7987 26.2453C64.7987 25.3906 64.0978 24.6978 63.2332 24.6978C62.3686 24.6978 61.6677 25.3906 61.6677 26.2453C61.6677 27.0999 62.3686 27.7928 63.2332 27.7928Z" fill="white"/>
  <path d="M93.4218 40.9414H73.4973C72.7585 40.9414 72.1541 40.3439 72.1541 39.6136V39.2817C72.1541 38.5513 72.7585 37.9539 73.4973 37.9539H93.4218C94.1606 37.9539 94.7651 38.5513 94.7651 39.2817V39.6136C94.7651 40.3439 94.1606 40.9414 93.4218 40.9414Z" fill="#FFE45A"/>
  <path d="M93.8782 45.1289H73.2647C72.7154 45.1289 72.2659 44.6846 72.2659 44.1416C72.2659 43.5986 72.7154 43.1543 73.2647 43.1543H93.8782C94.4275 43.1543 94.8769 43.5986 94.8769 44.1416C94.8769 44.6846 94.4275 45.1289 93.8782 45.1289Z" fill="#FFE45A"/>
  <path d="M94.102 49.5718H73.4886C72.9393 49.5718 72.4898 49.1275 72.4898 48.5845C72.4898 48.0415 72.9393 47.5972 73.4886 47.5972H94.102C94.6513 47.5972 95.1008 48.0415 95.1008 48.5845C95.1008 49.1275 94.6513 49.5718 94.102 49.5718Z" fill="#FFE45A"/>
  <path d="M64.2022 26.2453C64.2022 26.7743 63.7684 27.2031 63.2332 27.2031C62.698 27.2031 62.2642 26.7743 62.2642 26.2453C62.2642 25.7162 62.698 25.2874 63.2332 25.2874C63.7684 25.2874 64.2022 25.7162 64.2022 26.2453Z" fill="#0037BB"/>
  <path d="M57.1609 30.1495C57.437 29.6803 57.2761 29.0787 56.8015 28.8058C56.3269 28.5329 55.7184 28.6919 55.4423 29.1611C55.1662 29.6302 55.3271 30.2318 55.8016 30.5047C56.2762 30.7776 56.8848 30.6186 57.1609 30.1495Z" fill="white"/>
  <path d="M56.9309 29.6582C56.9309 30.0033 56.6478 30.2832 56.2986 30.2832C55.9493 30.2832 55.6663 30.0033 55.6663 29.6582C55.6663 29.3131 55.9493 29.0332 56.2986 29.0332C56.6478 29.0332 56.9309 29.3131 56.9309 29.6582Z" fill="#0037BB"/>
  <path d="M62.6324 94.0447C64.6758 93.1902 65.6316 90.8601 64.7672 88.8402C63.9028 86.8203 61.5456 85.8755 59.5022 86.73C57.4588 87.5844 56.503 89.9145 57.3674 91.9344C58.2318 93.9543 60.589 94.8991 62.6324 94.0447Z" fill="white"/>
  <path d="M61.0664 93.4293C62.7675 93.4293 64.1466 92.0662 64.1466 90.3846C64.1466 88.703 62.7675 87.3398 61.0664 87.3398C59.3653 87.3398 57.9863 88.703 57.9863 90.3846C57.9863 92.0662 59.3653 93.4293 61.0664 93.4293Z" fill="#FFE047"/>
  <path d="M8.94975 48.3212H42.3946C44.017 48.3212 45.3443 47.0091 45.3443 45.4054V19.9158C45.3443 18.3121 44.0169 17 42.3946 17H8.94975C7.32733 17 6 18.3121 6 19.9158V45.4052C6 47.009 7.32733 48.3212 8.94975 48.3212Z" fill="#585D71"/>
  <path d="M9.02189 45.5924H42.3225C43.0613 45.5924 43.6657 44.9949 43.6657 44.2646V21.6332C43.6657 20.9029 43.0613 20.3054 42.3225 20.3054H9.02189C8.28308 20.3054 7.67865 20.9029 7.67865 21.6332V44.2646C7.67865 44.9948 8.28308 45.5924 9.02189 45.5924Z" fill="#E9FAFF"/>
  <path d="M53.1306 48.2662H42.3791L45.3601 40.2134L53.1306 48.2662Z" fill="#585D71"/>
  <path d="M41.8193 26.9994H31.7452C31.3142 26.9994 30.9617 26.651 30.9617 26.2249C30.9617 25.7989 31.3142 25.4504 31.7452 25.4504H41.8193C42.2503 25.4504 42.6028 25.7989 42.6028 26.2249C42.603 26.6508 42.2503 26.9994 41.8193 26.9994Z" fill="#0037BB"/>
  <path d="M41.8193 30.319H31.7452C31.3142 30.319 30.9617 29.9705 30.9617 29.5445C30.9617 29.1185 31.3142 28.77 31.7452 28.77H41.8193C42.2503 28.77 42.6028 29.1185 42.6028 29.5445C42.603 29.9705 42.2503 30.319 41.8193 30.319Z" fill="#33D7D1"/>
  <path d="M41.8193 34.3024H31.7452C31.3142 34.3024 30.9617 33.9539 30.9617 33.5279C30.9617 33.1019 31.3142 32.7534 31.7452 32.7534H41.8193C42.2503 32.7534 42.6028 33.102 42.6028 33.5279C42.603 33.9539 42.2503 34.3024 41.8193 34.3024Z" fill="#0037BB"/>
  <path d="M25.0726 36.5365L19.6785 39.2815L14.2644 36.5365V32.3103H25.0726V36.5365Z" fill="#004EFF"/>
  <path d="M19.6585 24.6084L9.98914 29.9603L19.6585 35.3121L29.328 29.9603L19.6585 24.6084Z" fill="#0037BB"/>
  <path d="M10.2395 35.5375H9.96991V29.9423L19.4987 29.54L19.5103 29.8063L10.2395 30.1977V35.5375Z" fill="#22AAA6"/>
  <path d="M9.18011 37.632H11.0292L10.3906 35.6731C10.2907 35.3662 9.92907 35.3653 9.82788 35.6716L9.18011 37.632Z" fill="#22AAA6"/>
  <path d="M19.9668 29.6064C19.9668 29.8641 19.7555 30.0728 19.4948 30.0728C19.2341 30.0728 19.0229 29.864 19.0229 29.6064C19.0229 29.3488 19.2343 29.1399 19.4948 29.1399C19.7555 29.14 19.9668 29.3489 19.9668 29.6064Z" fill="#22AAA6"/>
  <g opacity="0.75">
    <path opacity="0.81" d="M92.9166 77.0359C94.1065 72.3095 91.2695 67.5427 86.5799 66.3891C81.8903 65.2354 77.124 68.1317 75.9341 72.8581C74.7442 77.5845 77.5812 82.3512 82.2708 83.5049C86.9604 84.6586 91.7267 81.7623 92.9166 77.0359Z" fill="#1A60FF"/>
    <path d="M92.9211 77.0407C91.7308 81.7671 87.8939 83.3165 86.0988 83.6018L84.4301 74.9512L92.9211 77.0407Z" fill="#004EFF"/>
    <path d="M77.6849 69.4133C80.4419 65.3258 89.9288 63.6212 92.9368 72.6823L84.4543 74.9461L77.6849 69.4133Z" fill="#22AAA6"/>
    <path d="M84.4354 74.9507L92.9246 77.048C93.3009 75.5597 93.2775 74.0669 92.9227 72.6841L84.4354 74.9507Z" fill="#FFD400"/>
  </g>
  <path d="M122.867 69.759H90.4136C89.6748 69.759 89.0704 69.1616 89.0704 68.4312V43.1132C89.0704 42.3829 89.6748 41.7854 90.4136 41.7854H122.867C123.605 41.7854 124.21 42.3829 124.21 43.1132V68.4312C124.21 69.1616 123.605 69.759 122.867 69.759Z" fill="url(#paint0_linear_12030_26467)"/>
  <path d="M121.367 67.4884H91.9128C91.174 67.4884 90.5695 66.8909 90.5695 66.1606V46.2319C90.5695 45.5015 91.174 44.9041 91.9128 44.9041H121.367C122.106 44.9041 122.71 45.5015 122.71 46.2319V66.1606C122.71 66.8909 122.106 67.4884 121.367 67.4884Z" fill="#E9FAFF"/>
  <path d="M94.4067 47.3841L93.0923 45.729L91.7393 47.3841H94.4067Z" fill="#585D71"/>
  <path d="M119.619 66.3643L121.293 65.065L119.619 63.7275V66.3643Z" fill="#585D71"/>
  <path d="M121.117 65.2423H92.8381V47.3591H93.1739V64.9103H121.117V65.2423Z" fill="#585D71"/>
  <path d="M110.072 60.9644C107.048 60.9644 105.545 58.3565 104.204 56.0305C102.959 53.8701 101.882 52.0042 99.886 52.3596C95.4125 53.1555 94.1761 60.6225 94.164 60.6979L93.7218 60.6293C93.7725 60.309 95.0197 52.7757 99.8067 51.9239C102.116 51.5129 103.319 53.6009 104.593 55.8113C106.065 58.3649 107.588 61.0053 110.96 60.4452C113.746 59.9823 115.9 56.488 117.217 53.6382C118.509 50.842 119.265 48.1114 119.454 47.2784L119.403 47.2637C119.497 46.9426 119.543 46.7822 119.752 46.8084L119.949 47.0345C119.96 47.6225 116.716 59.9379 111.034 60.8817C110.697 60.9378 110.377 60.9644 110.072 60.9644Z" fill="#22AAA6"/>
  <path d="M100.483 52.449H100.147V53.1129H100.483V52.449Z" fill="#585D71"/>
  <path d="M100.483 63.0744H100.147V61.8293H100.483V63.0744ZM100.483 60.584H100.147V59.3388H100.483V60.584ZM100.483 58.0937H100.147V56.8484H100.483V58.0937ZM100.483 55.6032H100.147V54.3579H100.483V55.6032Z" fill="#585D71"/>
  <path d="M100.483 64.3198H100.147V64.9837H100.483V64.3198Z" fill="#585D71"/>
  <path d="M109.807 64.9521H109.471V63.6243H109.807V64.9521ZM109.807 62.2966H109.471V60.9688H109.807V62.2966Z" fill="#585D71"/>
  <path d="M117.596 65.1688H117.26V64.5096H117.596V65.1688ZM117.596 63.1817H117.26V61.8539H117.596V63.1817ZM117.596 60.5262H117.26V59.1984H117.596V60.5262ZM117.596 57.8706H117.26V56.5428H117.596V57.8706ZM117.596 55.215H117.26V53.8872H117.596V55.215Z" fill="#585D71"/>
  <path d="M94.176 65.0477H93.8401V63.7199H94.176V65.0477ZM94.176 62.3923H93.8401V61.0645H94.176V62.3923Z" fill="#585D71"/>
  <path d="M82.8998 69.8206H91.8388L89.8399 65.0627L82.8998 69.8206Z" fill="url(#paint1_linear_12030_26467)"/>
  <g opacity="0.75">
    <path d="M23.4395 63.0963L22.1251 61.4412L20.7721 63.0963H23.4395Z" fill="#585D71"/>
    <path d="M46.6328 82.0761L48.3071 80.7767L46.6328 79.4395V82.0761Z" fill="#585D71"/>
    <path d="M46.9684 80.9542H21.8708V63.071H22.2067V80.6222H46.9684V80.9542Z" fill="#585D71"/>
    <g opacity="0.81">
      <path d="M35.8338 61.8172C33.0431 61.8172 31.8562 59.8378 30.8028 58.0814C29.8819 56.5461 29.0867 55.2197 27.4085 55.4345C23.6899 55.9094 23.2417 61.5908 23.2377 61.6481L22.7911 61.6172C22.8086 61.3684 23.2688 55.517 27.3512 54.9956C29.322 54.7432 30.2283 56.2554 31.188 57.8557C32.2796 59.6761 33.4082 61.5588 36.2413 61.36C37.6604 61.2605 39.2826 59.7282 40.9326 56.9285C42.099 54.9495 42.8891 53.0015 43.0825 52.4831L43.067 52.4769C43.1405 52.2959 43.2042 52.1397 43.397 52.1845L43.5692 52.4196C43.5581 52.5565 42.6857 54.8118 41.3724 57.0609C39.6016 60.0933 37.8859 61.6883 36.273 61.8014C36.1221 61.812 35.9758 61.8172 35.8338 61.8172ZM43.1515 52.5105C43.1754 52.5515 43.2134 52.5868 43.2655 52.6066C43.315 52.6253 43.3645 52.6251 43.4083 52.6124L43.1515 52.5105Z" fill="#0DB7AE"/>
    </g>
    <path opacity="0.81" d="M25.2397 80.6643H24.5813C23.8425 80.6643 23.2381 80.0668 23.2381 79.3365V75.1039C23.2381 74.3736 23.8425 73.7761 24.5813 73.7761H25.2397C25.9785 73.7761 26.5829 74.3736 26.5829 75.1039V79.3365C26.5829 80.0668 25.9785 80.6643 25.2397 80.6643Z" fill="#FFEC91"/>
    <g opacity="0.81">
      <path d="M29.5599 80.6643H28.9016C28.1628 80.6643 27.5583 80.0668 27.5583 79.3365V67.3893C27.5583 66.659 28.1628 66.0615 28.9016 66.0615H29.5599C30.2987 66.0615 30.9031 66.659 30.9031 67.3893V79.3365C30.9031 80.0668 30.2986 80.6643 29.5599 80.6643Z" fill="#0DB7AE"/>
    </g>
    <path opacity="0.81" d="M34.0195 80.6643H33.3612C32.6224 80.6643 32.0179 80.0668 32.0179 79.3365V70.2824C32.0179 69.5521 32.6224 68.9546 33.3612 68.9546H34.0195C34.7583 68.9546 35.3627 69.5521 35.3627 70.2824V79.3365C35.3627 80.0668 34.7583 80.6643 34.0195 80.6643Z" fill="#33D7D1"/>
    <path opacity="0.81" d="M38.4791 80.6643H37.8208C37.082 80.6643 36.4775 80.0668 36.4775 79.3365V65.3229C36.4775 64.5926 37.082 63.9951 37.8208 63.9951H38.4791C39.2179 63.9951 39.8223 64.5926 39.8223 65.3229V79.3365C39.8223 80.0668 39.2179 80.6643 38.4791 80.6643Z" fill="#FFD400"/>
    <path opacity="0.81" d="M42.9388 80.6643H42.2805C41.5417 80.6643 40.9373 80.0668 40.9373 79.3365V59.8124C40.9373 59.0821 41.5417 58.4846 42.2805 58.4846H42.9388C43.6776 58.4846 44.2821 59.0821 44.2821 59.8124V79.3365C44.2821 80.0668 43.6775 80.6643 42.9388 80.6643Z" fill="#22AAA6"/>
    <path d="M26.5936 56.8902C26.5319 53.3781 29.3423 50.3805 32.3447 49.9135C32.0997 49.8839 31.3211 49.9312 31.0687 49.9354C27.7073 49.9931 25.0364 53.1182 25.1031 56.9157C25.1697 60.7131 27.9488 63.7448 31.3102 63.6871C31.5626 63.6827 32.553 63.6994 32.797 63.6616C29.7799 63.2978 26.6552 60.4023 26.5936 56.8902Z" fill="#22AAA6"/>
    <path d="M32.8006 63.6617C29.4392 63.7194 26.6602 60.6877 26.5936 56.8903C26.5269 53.0929 29.1978 49.9676 32.5592 49.91C35.9203 49.8524 38.6996 52.884 38.7662 56.6814C38.8329 60.4788 36.1617 63.6041 32.8006 63.6617Z" fill="#70E3DE"/>
    <path d="M32.7931 63.2299C31.2615 63.2562 29.8107 62.6083 28.7081 61.4055C27.6101 60.2077 26.9888 58.6019 26.9586 56.8838C26.9284 55.1658 27.493 53.5397 28.5483 52.3048C29.6079 51.0649 31.0349 50.3676 32.5667 50.3413C34.0982 50.3151 35.549 50.963 36.6516 52.1658C37.7496 53.3636 38.3709 54.9694 38.4011 56.6874C38.4313 58.4055 37.8667 60.0316 36.8113 61.2664C35.7516 62.5062 34.3246 63.2036 32.7931 63.2299ZM32.5714 50.6092C29.5661 50.6607 27.1698 53.4734 27.2296 56.8791C27.2893 60.2848 29.783 63.0134 32.7882 62.9619C35.7933 62.9104 38.1898 60.0977 38.13 56.692C38.0704 53.2865 35.5767 50.5577 32.5714 50.6092Z" fill="#33D7D1"/>
    <path d="M26.5975 57.136L25.1074 57.1616C25.1152 57.3268 25.1278 57.4904 25.1455 57.6523L26.6368 57.6267C26.6186 57.465 26.6055 57.3014 26.5975 57.136Z" fill="#33D7D1"/>
    <path d="M26.6327 55.9072L25.1429 55.9328C25.125 56.0951 25.1134 56.2594 25.1058 56.4247L26.5961 56.3991C26.6039 56.2339 26.615 56.0696 26.6327 55.9072Z" fill="#33D7D1"/>
    <path d="M26.7558 58.3616L25.265 58.3872C25.3003 58.5527 25.3402 58.7158 25.3854 58.8764L26.8756 58.8508C26.8304 58.6904 26.7908 58.5272 26.7558 58.3616Z" fill="#33D7D1"/>
    <path d="M27.1246 59.5833L25.6332 59.6089C25.6995 59.7753 25.7724 59.9373 25.8497 60.0964L27.3407 60.0708C27.2631 59.9122 27.1909 59.7497 27.1246 59.5833Z" fill="#33D7D1"/>
    <path d="M26.8707 54.675L25.3817 54.7005C25.336 54.8626 25.294 55.0268 25.2589 55.1939L26.7511 55.1683C26.786 55.002 26.8252 54.8369 26.8707 54.675Z" fill="#33D7D1"/>
    <path d="M27.3441 53.4387L25.8533 53.4643C25.7743 53.6256 25.6997 53.7905 25.6324 53.9593L27.1239 53.9337C27.1915 53.7648 27.2648 53.5997 27.3441 53.4387Z" fill="#33D7D1"/>
    <path d="M28.3317 51.948L26.8394 51.9736C26.7011 52.1322 26.5696 52.2984 26.4451 52.4716L27.9368 52.446C28.0613 52.2726 28.1931 52.1066 28.3317 51.948Z" fill="#33D7D1"/>
    <path d="M29.8289 50.6938L28.3351 50.7195C28.0841 50.8687 27.8433 51.0369 27.6144 51.2232L29.1074 51.1975C29.3364 51.0116 29.5775 50.8434 29.8289 50.6938Z" fill="#33D7D1"/>
    <path d="M27.9137 61.0437L26.4226 61.0693C26.5408 61.2375 26.6655 61.3992 26.7969 61.5542L28.2892 61.5285C28.1576 61.3736 28.0321 61.2119 27.9137 61.0437Z" fill="#33D7D1"/>
    <path d="M27.5167 62.2787C27.7194 62.4528 27.931 62.6143 28.1521 62.759L29.6466 62.7334C29.4239 62.5881 29.2102 62.4279 29.0065 62.2532L27.5167 62.2787Z" fill="#33D7D1"/>
    <path d="M32.8156 62.1577C30.1591 62.2033 27.9554 59.8302 27.9034 56.8677C27.8513 53.9052 29.9704 51.4579 32.627 51.4123C35.2835 51.3667 37.4872 53.7398 37.5392 56.7023C37.5913 59.6649 35.4722 62.1122 32.8156 62.1577ZM32.6307 51.6207C30.0904 51.6644 28.0642 54.0165 28.1142 56.8642C28.1642 59.7118 30.2716 61.993 32.8119 61.9494C35.3522 61.9058 37.3783 59.5536 37.3283 56.706C37.2784 53.8583 35.171 51.5771 32.6307 51.6207Z" fill="white"/>
    <path d="M32.434 60.4626L32.4504 59.524C31.9052 59.5053 31.3441 59.3284 31.0192 59.0904L31.2557 58.4716C31.5903 58.7004 32.076 58.8854 32.6025 58.8945C33.27 58.906 33.728 58.5327 33.7373 58.0029C33.7464 57.4917 33.3852 57.1694 32.6944 56.8787C31.7419 56.4905 31.1571 56.0528 31.1714 55.2443C31.1849 54.4729 31.7499 53.897 32.6173 53.7724L32.6338 52.8337L33.2167 52.8438L33.2008 53.7453C33.7645 53.7735 34.1474 53.9289 34.4173 54.0916L34.1714 54.7009C33.976 54.5859 33.5942 54.3749 32.9923 54.3644C32.2685 54.352 31.9883 54.7749 31.9818 55.1465C31.9733 55.6299 32.3169 55.8774 33.1289 56.226C34.0904 56.6329 34.5709 57.1247 34.5562 57.9518C34.5433 58.686 34.0142 59.3648 33.0429 59.5062L33.0259 60.4728L32.434 60.4626Z" fill="white"/>
  </g>
  <path d="M91.1767 43.6159C91.3163 43.2666 91.1048 42.8762 90.7334 42.7971C87.8833 42.19 87.5098 45.2138 86.3835 46.2451L76.3764 55.8839C76.1852 55.9443 75.9968 56.0038 75.8057 56.0641L65.409 52.8996C64.1976 54.0088 63.785 54.2605 64.3325 57.2368L64.968 59.8377C66.1857 61.1374 66.796 61.5661 69.5332 62.1074L74.9735 63.836C76.3834 64.2839 77.9315 63.9127 78.9699 62.869C82.8081 59.0115 84.6259 56.228 85.0031 55.6377C85.0319 55.5925 86.4157 53.269 86.4318 53.218L88.7826 47.266C89.1984 46.0146 88.5437 46.4015 91.0475 43.8142C91.1026 43.7574 91.1475 43.6891 91.1767 43.6159Z" fill="#FDC6B2"/>
  <path d="M70.3795 85.3332C70.9279 83.8881 71.8788 79.2647 72.4479 80.7427C72.9414 82.0244 73.4568 83.025 73.9536 85.3491L70.3795 85.3332Z" fill="#6C7082"/>
  <path d="M72.0817 85.3344C72.3575 83.5559 72.6475 82.5457 72.9685 80.5863C73.0945 79.8169 71.983 81.6232 71.2269 81.782C68.3504 82.3863 61.9954 80.3869 52.6318 78.8212C51.8802 78.6955 51.6038 81.7201 51.7436 82.4764C51.9138 83.3972 52.0789 83.7594 52.257 85.3305L72.0817 85.3344Z" fill="#585D71"/>
  <path d="M50.2658 55.4583C50.5022 54.6337 51.6451 51.3071 56.8494 48.7832C57.0448 48.6885 57.5349 47.9508 57.6971 48.1174L61.9732 52.5069C62.357 52.9009 62.9322 52.5572 62.9322 51.9338V49.8738C62.9322 49.3742 63.3178 49.0182 63.6964 49.1684L67.5029 50.678C67.5399 50.6926 67.5748 50.7112 67.6086 50.7348C67.9351 50.9613 71.4458 52.2431 73.8804 54.9493C74.1204 55.216 74.3114 55.339 74.1393 55.6789L71.8532 60.1956C71.77 60.36 70.6657 62.3273 70.6986 62.5178L70.9766 64.9925C70.9995 65.1256 70.9928 65.264 70.9573 65.3926L73.2684 81.6758C73.1965 81.9359 67.6986 82.3221 67.4822 82.3622L61.7538 82.877C59.0922 82.9342 51.9058 81.0225 51.7817 80.7751L50.7202 65.1272C50.6667 65.0207 50.6358 64.8988 50.6303 64.773L50.233 55.7462C50.2288 55.6482 50.2393 55.5506 50.2658 55.4583Z" fill="#33D7D1"/>
  <path d="M64.9637 83.946C63.5383 83.0138 53.6608 81.1143 49.3408 75.6635C47.573 73.433 46.9976 68.9085 47.0902 65.2061C47.4704 49.9844 58.1372 47.8387 58.1372 47.8387C58.7212 47.6694 58.457 45.8162 58.56 45.4743C58.5727 45.432 58.3613 45.1418 58.3699 45.0984L59.3495 43.0793C59.3723 42.9642 59.4099 42.8524 59.4614 42.7468L60.6191 40.3699C60.8677 39.8594 61.4077 39.5519 61.9791 39.5953L66.5312 38.5879C67.2803 38.6447 67.8484 39.2792 67.8146 40.021L67.6503 45.3074C67.5649 47.912 67.0051 48.5759 66.1096 48.7973L63.5059 48.622C63.1471 48.9049 63.4729 49.3991 63.5062 49.8517V52.0478C63.5062 53.3288 62.9509 53.3288 62.7663 53.1805L56.9574 59.2706C56.9274 59.302 56.8983 59.3352 56.8712 59.369C49.8658 68.1114 62.0836 78.9418 65.662 81.3575C65.662 81.3575 68.0186 83.2555 68.4549 83.7732C68.6784 84.0383 70.2005 86.1026 69.3277 88.1732C68.4549 90.2438 66.7094 87.3105 66.7094 86.1889C66.7092 85.0675 64.9637 83.946 64.9637 83.946Z" fill="#FDC6B2"/>
  <path d="M47.5281 58.6451C47.4607 58.8208 55.3636 63.403 55.3636 63.403L63.3926 53.8357L57.7086 47.9341C57.7086 47.9341 51.222 49.0187 47.5281 58.6451Z" fill="#33D7D1"/>
  <path d="M62.9742 42.8406C62.9836 42.3775 63.1461 41.8651 63.324 41.4384C63.5608 40.87 64.0898 40.4732 64.7083 40.4094L66.713 40.2025C67.3374 40.1382 68.2846 39.5865 68.5165 39.01C68.9931 37.8256 68.8332 35.0997 65.5184 35.1897C60.6705 35.3213 63.7552 38.5151 59.5572 38.711C55.3593 38.9069 58.6565 41.2786 58.3935 42.9628C58.1305 44.6468 56.9682 45.448 58.1266 46.1351C59.285 46.8221 61.2606 45.6085 60.3402 44.4469C59.1269 42.9157 60.4868 41.3831 61.4839 42.0619C61.8452 42.3078 61.9843 42.7328 62.0146 43.1746L62.9742 42.8406Z" fill="#2E344D"/>
  <path d="M52.2299 74.0874L52.2365 74.0014C51.6986 73.9613 51.2919 73.7701 51.0274 73.4333C50.54 72.8125 50.6979 71.895 50.6995 71.8858L50.6135 71.8706C50.6065 71.9096 50.4469 72.8342 50.958 73.4856C51.2382 73.8429 51.6662 74.0453 52.2299 74.0874Z" fill="#2976F2"/>
  <path d="M16.3414 103.354L23.6285 105.237C23.8491 105.303 30.1408 103.152 30.3392 103.041L40.829 100.131C40.9696 100.052 41.0607 99.9141 41.0736 99.7599L41.4482 99.751L15.7651 102.148C15.7085 102.591 15.8908 103.219 16.3414 103.354Z" fill="#0037BB"/>
  <path d="M15.7647 102.148L22.5533 103.843L38.8819 98.9038L30.7134 100.386L15.7647 102.148Z" fill="#B2C9FF"/>
  <path d="M22.5594 103.51L25.2622 91.4139C25.3815 90.7998 25.8478 90.3176 26.4135 90.2235L43.4109 89.1937C44.3466 89.0382 45.0608 89.9802 44.7593 90.9721L41.7911 102.569C41.6465 103.044 41.2813 103.446 40.8422 103.585L24.4573 105.173C23.5306 105.468 22.3593 104.538 22.5594 103.51Z" fill="#0037BB"/>
  <path opacity="0.36" d="M24.4573 105.174C23.5305 105.468 22.3594 104.538 22.5593 103.51L25.2622 91.414C25.3815 90.7998 25.8478 90.3176 26.4135 90.2235L43.4109 89.1937C44.3466 89.0382 45.0608 89.9802 44.7592 90.9721L24.4573 105.174Z" fill="white"/>
  <path d="M36.1539 98.8918C37.1041 97.831 37.0041 96.2096 35.931 95.2706C34.8578 94.3314 33.2177 94.4301 32.2677 95.4909C31.3176 96.5516 31.4176 98.1731 32.4906 99.1121C33.5637 100.051 35.2038 99.9525 36.1539 98.8918Z" fill="white"/>
  <defs>
    <linearGradient id="paint0_linear_12030_26467" x1="106.64" y1="41.785" x2="106.64" y2="69.759" gradientUnits="userSpaceOnUse">
      <stop stop-color="#004EFF"/>
      <stop offset="0.795" stop-color="#33D7D1"/>
    </linearGradient>
    <linearGradient id="paint1_linear_12030_26467" x1="87.3693" y1="65.0627" x2="87.3693" y2="69.8206" gradientUnits="userSpaceOnUse">
      <stop stop-color="#004EFF"/>
      <stop offset="0.795" stop-color="#33D7D1"/>
    </linearGradient>
  </defs>
</svg>
