<svg width="64" height="64" viewBox="0 0 64 64" fill="none" xmlns="http://www.w3.org/2000/svg">
  <!-- Building/Enterprise Icon -->
  <rect x="8" y="16" width="48" height="40" rx="2" fill="#E3F2FD" stroke="#1976D2" stroke-width="2"/>
  <rect x="12" y="20" width="8" height="8" fill="#1976D2"/>
  <rect x="24" y="20" width="8" height="8" fill="#1976D2"/>
  <rect x="36" y="20" width="8" height="8" fill="#1976D2"/>
  <rect x="48" y="20" width="4" height="8" fill="#1976D2"/>
  
  <rect x="12" y="32" width="8" height="8" fill="#1976D2"/>
  <rect x="24" y="32" width="8" height="8" fill="#1976D2"/>
  <rect x="36" y="32" width="8" height="8" fill="#1976D2"/>
  <rect x="48" y="32" width="4" height="8" fill="#1976D2"/>
  
  <rect x="12" y="44" width="8" height="8" fill="#1976D2"/>
  <rect x="24" y="44" width="8" height="8" fill="#1976D2"/>
  <rect x="36" y="44" width="8" height="8" fill="#1976D2"/>
  <rect x="48" y="44" width="4" height="8" fill="#1976D2"/>
  
  <!-- People/Team Icon -->
  <circle cx="20" cy="8" r="4" fill="#FF9800"/>
  <circle cx="32" cy="8" r="4" fill="#FF9800"/>
  <circle cx="44" cy="8" r="4" fill="#FF9800"/>
  
  <!-- Growth Arrow -->
  <path d="M50 48 L58 40 L54 40 L54 36 L50 36 L50 40 L46 40 Z" fill="#4CAF50"/>
</svg>
