<svg xmlns="http://www.w3.org/2000/svg" width="130" height="105" viewBox="0 0 130 105" fill="none">
  <path d="M73.2911 97.5545C71.4882 96.9235 70.0211 95.6051 68.6454 94.2802C65.6695 91.4134 62.8409 88.3178 60.8939 84.6731C60.394 83.7373 59.9486 82.75 59.8179 81.6968C59.6871 80.6439 59.9058 79.5079 60.6048 78.7095C61.5701 77.6072 63.1617 77.3841 64.544 76.898C64.9666 76.7495 65.4048 76.5488 65.6401 76.1675C66.1926 75.2718 65.3031 74.1989 64.4934 73.5266C63.823 72.9697 63.1527 72.4129 62.482 71.856C61.6486 71.1637 60.7289 70.2491 60.9308 69.1849C61.102 68.284 62.0932 67.7103 63.0086 67.7609C63.924 67.8116 64.7459 68.348 65.4088 68.9815C66.0717 69.6149 66.6234 70.3587 67.3012 70.9764C67.4626 71.1233 67.6433 71.269 67.8596 71.298C68.3804 71.3683 68.7252 70.7635 68.8178 70.2464C69.024 69.0949 68.7397 67.8642 68.0497 66.9202C67.3743 65.9965 66.3697 65.3812 65.4967 64.6413C64.6238 63.9014 63.8258 62.9107 63.8317 61.7663C63.8372 60.6644 64.5421 59.6701 65.3613 58.9334C66.5457 57.8684 69.511 58.0718 70.0399 60.4327C70.3325 61.7377 70.5866 63.0512 70.8599 64.3605C71.037 65.208 71.4823 66.2702 72.3451 66.1976C73.0425 66.1387 73.4066 65.3427 73.5389 64.6554C74.0585 61.9533 73.0955 59.2126 72.911 56.4672C72.6263 52.2295 79.563 52.4408 80.4709 57.306C80.7097 58.5866 80.6225 59.9238 80.2549 61.1733C79.8296 62.6193 79.0167 63.9694 78.9048 65.4723C78.8644 66.0158 78.9291 66.5946 79.248 67.0368C79.5669 67.4786 80.1944 67.7283 80.6826 67.4857C81.1825 67.2375 81.3486 66.6248 81.5854 66.1194C82.2781 64.6421 83.9129 63.7852 85.5336 63.5967C86.4749 63.4872 87.547 63.6215 88.1526 64.3503C88.8806 65.2272 88.6038 66.5962 87.9244 67.5112C87.245 68.4262 86.2519 69.0486 85.4221 69.8297C84.5923 70.6108 83.8862 71.695 84.0696 72.8197C84.0999 73.0043 84.1596 73.1952 84.299 73.3196C84.4136 73.4225 84.5684 73.4677 84.7199 73.4948C85.8011 73.6872 86.8456 73.1013 87.8918 72.7683C88.9384 72.4357 90.3376 72.4938 90.8249 73.4775C91.2235 74.2826 90.7499 75.2777 90.0631 75.8565C89.3762 76.4354 88.5064 76.7475 87.7591 77.2455C85.4912 78.7558 84.7019 82.1099 86.0579 84.4732C86.4392 85.1376 86.9615 85.7236 87.2552 86.4312C87.7477 87.618 87.5211 89.0093 86.9324 90.1513C86.3438 91.2933 85.428 92.2299 84.4973 93.1158C82.1006 95.3982 79.0623 97.6087 75.793 97.0935" fill="url(#paint0_linear_12030_26592)"/>
  <g opacity="0.41">
    <path d="M74.5074 57.4651C74.5659 57.597 74.6252 57.7254 74.6845 57.8538C74.6354 57.7211 74.5871 57.5876 74.5506 57.4513C74.5431 57.4227 74.4956 57.4384 74.5074 57.4651Z" fill="#444472"/>
    <path d="M75.2954 59.0348C75.0751 58.6613 74.8756 58.2682 74.6848 57.8567C74.8367 58.2682 75.0449 58.6629 75.2954 59.0348Z" fill="#444472"/>
    <path opacity="0.47" d="M86.2913 76.1218C83.604 80.65 80.7275 85.247 76.0645 87.9304C76.5731 84.8579 76.9803 81.7669 77.2529 78.6681C80.259 75.3195 82.3659 71.3383 84.4645 67.3845C84.4861 67.3441 84.4248 67.3115 84.402 67.3508C82.2645 71.0559 80.0466 74.6778 77.3153 77.9742C77.6998 73.2448 77.752 68.4986 77.3742 63.7709C77.4084 63.7721 77.4414 63.7618 77.4582 63.7194C78.334 61.567 78.7938 59.3302 78.8331 57.0081C78.8335 56.985 78.7985 56.9869 78.7978 57.0093C78.7019 59.2473 78.2197 61.3781 77.3459 63.4343C77.2796 62.6458 77.1975 61.8576 77.1076 61.0703C77.1555 61.0416 77.1826 60.9795 77.1272 60.9379C77.1142 60.9281 77.1017 60.9167 77.0887 60.9069C76.9348 59.5843 76.7494 58.2632 76.5165 56.9457C76.513 56.9261 76.4785 56.932 76.482 56.9516C76.6905 58.2432 76.8562 59.5352 76.9901 60.8272C76.3602 60.3324 75.7598 59.7237 75.296 59.0353C75.7398 59.7873 76.2707 60.4643 77.0066 61.0679C77.0102 61.0711 77.0141 61.0691 77.018 61.0714C77.4378 65.2679 77.4814 69.4651 77.2525 73.6529C72.961 71.6532 71.1212 67.2 68.4009 63.6197C68.3872 63.6016 68.3574 63.6201 68.3711 63.6389C71.0183 67.2907 72.7925 71.9415 77.1237 73.9462C77.1633 73.9647 77.2006 73.9639 77.234 73.9541C77.146 75.4793 77.0184 77.0034 76.8633 78.5255C76.8068 78.5966 76.8087 78.6759 76.8433 78.7388C76.7086 80.0382 76.5503 81.3365 76.3736 82.6332C72.1493 80.2986 68.518 77.2751 65.7443 73.2982C65.7313 73.2794 65.7019 73.2979 65.7141 73.3171C68.3629 77.4043 71.9239 80.7851 76.3355 82.9006C75.9668 85.5667 75.5163 88.2257 75.0097 90.8748C70.507 88.9416 66.1056 86.4114 64.2045 81.6353C64.1963 81.6141 64.1625 81.6243 64.1708 81.6459C66.0004 86.5107 70.421 89.1552 74.9481 91.1929C74.7894 92.0141 74.6269 92.8348 74.458 93.6544C74.3889 93.9902 74.9076 94.1139 74.9768 93.7777C75.3514 91.9591 75.6954 90.1315 76.0037 88.2975C80.9254 85.6378 83.7018 80.9096 86.3538 76.1563C86.3761 76.1151 86.3145 76.0825 86.2913 76.1218Z" fill="#444472"/>
  </g>
  <path d="M92.2458 90.1342C93.7585 88.779 95.0042 87.0558 95.77 85.0959C96.5448 83.1127 96.745 80.9116 96.8456 78.7412C96.9567 76.3366 96.9555 73.9223 96.842 71.5095C93.3116 72.324 89.8044 73.343 86.5634 75.0006C83.3224 76.6582 80.2456 78.9124 78.2248 82.0897C74.7525 87.5499 75.4295 94.335 75.4295 94.335C75.4295 94.335 84.0784 97.4515 92.2458 90.1342Z" fill="url(#paint1_linear_12030_26592)"/>
  <path opacity="0.3" d="M82.0748 89.583C83.9472 88.1166 85.7673 86.5674 87.4846 84.8859C90.7417 81.6967 93.5558 78.0167 95.5641 73.684C95.6112 73.5827 95.4632 73.5045 95.4149 73.6027C93.2342 78.0253 90.1711 81.7764 86.7389 85.0009C85.1182 86.5234 83.4139 87.9348 81.6659 89.2759C79.8285 90.6857 77.8556 91.9066 76.0601 93.3761C75.8594 93.5403 76.0856 93.8591 76.2965 93.7378C78.3237 92.5687 80.2165 91.0383 82.0748 89.583Z" fill="url(#paint2_linear_12030_26592)"/>
  <path d="M97.9413 100.727C99.9429 100.384 101.914 99.5872 103.605 98.3344C105.316 97.0668 106.656 95.3094 107.896 93.525C109.268 91.5477 110.551 89.5021 111.738 87.3988C108.315 86.2109 104.803 85.2091 101.177 84.8895C97.5506 84.5698 93.7461 84.8423 90.3453 86.4587C84.5011 89.2363 81.4662 95.3424 81.4662 95.3424C81.4662 95.3424 87.1333 102.58 97.9413 100.727Z" fill="url(#paint3_linear_12030_26592)"/>
  <path opacity="0.3" d="M89.6215 94.8489C91.9872 94.603 94.3524 94.2586 96.7008 93.7477C101.155 92.7793 105.495 91.159 109.5 88.5574C109.594 88.4965 109.51 88.3516 109.417 88.4089C105.219 90.9945 100.63 92.5425 96.0085 93.4481C93.8262 93.8753 91.6326 94.1648 89.4389 94.3709C87.133 94.5877 84.8129 94.5724 82.5109 94.8622C82.2537 94.8944 82.2757 95.2851 82.5187 95.2942C84.8569 95.3829 87.2736 95.0931 89.6215 94.8489Z" fill="url(#paint4_linear_12030_26592)"/>
  <path d="M86.948 13.1274L56.793 79.1968L58.0419 79.7668L88.197 13.6974L86.948 13.1274Z" fill="#5C71E8"/>
  <path d="M56.5776 81.3276C55.5569 80.8619 55.1073 79.6567 55.573 78.636C56.0388 77.6154 57.244 77.1658 58.2646 77.6315C75.4615 85.4809 95.8377 77.8762 103.687 60.6793C111.536 43.4825 103.932 23.1063 86.7348 15.2569C85.7142 14.7912 85.2645 13.586 85.7303 12.5653C86.196 11.5447 87.4012 11.0951 88.4219 11.5608C107.656 20.3405 116.162 43.1314 107.383 62.3664C98.6035 81.6009 75.8126 90.1069 56.5776 81.3276Z" fill="#0037BB"/>
  <path d="M95.2217 69.1702C107.771 56.6204 107.771 36.2732 95.2217 23.7234C82.6719 11.1736 62.3247 11.1736 49.7749 23.7234C37.2251 36.2732 37.2251 56.6204 49.7749 69.1702C62.3247 81.72 82.6719 81.72 95.2217 69.1702Z" fill="#FFF3B5"/>
  <path d="M101.734 59.7899C100.619 62.2321 99.2356 64.4662 97.6361 66.4761C93.8234 68.0657 89.5637 68.6037 85.4914 67.891C84.9722 67.8003 84.4307 67.6777 84.0368 67.3274C82.8512 66.2719 83.8676 64.3598 83.8585 62.7725C83.8511 61.4275 83.0413 60.2372 82.2846 59.1255C80.5814 56.6228 78.9266 53.5616 79.9476 50.7122C80.9776 47.8372 84.4063 46.2907 85.2581 43.3584C86.0734 40.5518 84.2175 37.6713 84.1719 34.7488C84.1366 32.4923 85.2192 30.3097 86.8081 28.7075C88.397 27.1052 90.4552 26.0359 92.5875 25.2968C93.7095 24.9081 94.9422 24.6178 96.1203 24.6469C104.63 33.8739 107.273 47.6554 101.734 59.7899ZM62.726 76.4338C64.3581 75.6135 65.762 74.144 66.0604 72.3419C66.3813 70.4054 65.398 68.4828 64.1759 66.9469C62.9538 65.411 61.458 64.0806 60.4581 62.3916C60.0309 61.6698 59.6947 60.8628 59.7053 60.0239C59.7344 57.738 62.2202 56.1346 62.5171 53.8675C62.7786 51.8707 61.207 50.0359 59.3978 49.1512C57.5887 48.266 55.5352 48.0532 53.5984 47.501C51.6616 46.9485 49.6784 45.8984 48.8919 44.0441C47.9034 41.713 49.1369 38.8875 47.839 36.666C47.0088 35.2452 44.792 34.3149 42.8654 34.0192C36.1695 49.9633 43.3151 68.4498 59.1563 75.6802C60.0666 76.0957 60.9867 76.4629 61.9127 76.7873C62.188 76.6812 62.4605 76.567 62.726 76.4338ZM53.8293 20.284C53.9255 20.639 54.061 20.9873 54.2165 21.3184C55.7583 24.601 59.09 27.0766 59.5773 30.6706C59.7096 31.6472 59.6464 32.7366 60.2732 33.4973C60.5983 33.8923 61.0692 34.1374 61.5404 34.3365C65.5703 36.0373 70.6449 34.8053 73.4456 31.4454C76.169 28.1785 76.6281 23.5839 78.7793 19.9148C79.3915 18.8702 80.1675 17.8135 80.1369 16.6028C80.1235 16.0793 79.9558 15.5845 79.7069 15.1223C70.6154 13.0205 61.196 15.0375 53.8293 20.284Z" fill="#FFD400"/>
  <path d="M75.6512 84.01H69.3483V99.0282H75.6512V84.01Z" fill="#3548BB"/>
  <path d="M97.3793 104.368H47.62C45.993 104.368 44.6743 103.049 44.6743 101.422C44.6743 99.795 45.993 98.4763 47.62 98.4763H97.3793C99.0063 98.4763 100.325 99.795 100.325 101.422C100.325 103.049 99.0063 104.368 97.3793 104.368Z" fill="#3548BB"/>
  <path d="M18.8277 79.6814C16.3714 79.6814 14.3729 77.6829 14.3729 75.2265C14.3729 72.7702 16.3714 70.7717 18.8277 70.7717H71.0694C69.3317 73.7417 69.3317 76.7114 71.0694 79.6814H18.8277Z" fill="#FDFDFD"/>
  <path d="M18.8277 79.6789C16.2967 79.6789 14.2523 77.5575 14.3784 74.9995C14.4966 72.6067 16.561 70.7693 18.9565 70.7693H71.7554C72.1344 70.7693 72.4419 70.4618 72.4419 70.0828V70.0824C72.4419 69.7035 72.1344 69.396 71.7554 69.396H18.8277C15.6091 69.396 13 72.0051 13 75.2237C13 78.4423 15.6091 81.0514 18.8277 81.0514H71.7558C72.1348 81.0514 72.4423 80.7439 72.4423 80.365C72.4423 79.986 72.1348 79.6785 71.7558 79.6785H18.8277V79.6789Z" fill="#33D7D1"/>
  <path d="M16.3516 71.5255L20.4452 71.4803L28.3821 71.43L44.2563 71.3884L60.1306 71.4297L68.0675 71.4799L70.6782 71.509C70.6589 71.5483 70.6405 71.5879 70.622 71.6276L68.0675 71.6559L60.1306 71.7061L44.2563 71.7474L28.3821 71.7053L20.4452 71.6551L16.2381 71.6087C16.2762 71.5816 16.3124 71.5518 16.3516 71.5255ZM20.4452 72.7004L28.3821 72.7507L44.2563 72.7923L60.1306 72.7511L68.0675 72.7008L70.1979 72.6773C70.212 72.6345 70.225 72.5921 70.2399 72.5493L68.0671 72.5253L60.1302 72.475L44.2559 72.4338L28.3817 72.4758L20.4448 72.5261L15.2505 72.583C15.2356 72.6031 15.2203 72.6227 15.2057 72.6427L20.4452 72.7004ZM20.4452 73.7458L28.3821 73.7961L44.2563 73.8381L60.1306 73.7969L68.0675 73.7466L69.9187 73.7262C69.9277 73.6814 69.9336 73.6366 69.9434 73.5919L68.0679 73.5711L60.131 73.5208L44.2567 73.4796L28.3825 73.5216L20.4456 73.5719L14.6724 73.6351C14.6665 73.6508 14.6611 73.6669 14.6552 73.6826L20.4452 73.7458ZM70.6216 78.825L68.0671 78.7968L60.1302 78.7465L44.2559 78.7053L28.3817 78.7473L20.4448 78.7976L16.2374 78.8439C16.2755 78.8714 16.312 78.9008 16.3509 78.9271L20.4448 78.9723L28.3817 79.0226L44.2559 79.0646L60.1302 79.0234L68.0671 78.9731L70.6778 78.9444C70.6589 78.904 70.6405 78.8647 70.6216 78.825ZM20.4452 77.9265L28.3821 77.9768L44.2563 78.0188L60.1306 77.9776L68.0675 77.9273L70.2399 77.9034C70.225 77.8606 70.212 77.8181 70.1979 77.7753L68.0675 77.7518L60.1306 77.7015L44.2563 77.6603L28.3821 77.7023L20.4452 77.7526L15.2057 77.8099C15.2203 77.8303 15.2356 77.8496 15.2505 77.8696L20.4452 77.9265ZM20.4452 76.8816L28.3821 76.9318L44.2563 76.9738L60.1306 76.9326L68.0675 76.8823L69.943 76.8615C69.9336 76.8168 69.9273 76.772 69.9183 76.7272L68.0675 76.7064L60.1306 76.6561L44.2563 76.6149L28.3821 76.6565L20.4452 76.7068L14.6548 76.7704C14.6607 76.7861 14.6662 76.8022 14.672 76.8179L20.4452 76.8816ZM20.4452 75.8362L28.3821 75.8864L44.2563 75.9281L60.1306 75.8868L68.0675 75.8366L69.7907 75.8173C69.7871 75.7714 69.7859 75.7258 69.7832 75.6799L68.0679 75.661L60.131 75.6108L44.2567 75.5695L28.3825 75.6116L20.4456 75.6618L14.4038 75.7282C14.4054 75.7423 14.4085 75.7561 14.4101 75.7698L20.4452 75.8362ZM20.4452 74.7908L28.3821 74.8411L44.2563 74.8831L60.1306 74.8419L68.0675 74.7916L69.7828 74.7727C69.7856 74.7268 69.7867 74.6812 69.7903 74.6353L68.0671 74.6161L60.1302 74.5658L44.2559 74.5246L28.3817 74.5666L20.4448 74.6168L14.4093 74.6832C14.4078 74.6973 14.4046 74.7107 14.403 74.7248L20.4452 74.7908Z" fill="#E1E3EF"/>
  <path d="M65.4107 79.2936L63.1338 77.9934L60.8569 79.2936V73.5354H65.4107V79.2936Z" fill="#22AAA6"/>
  <path d="M66.6141 91.3442C69.0705 91.3442 71.0689 89.3458 71.0689 86.8894C71.0689 84.433 69.0705 82.4346 66.6141 82.4346H14.3724C16.1101 85.4046 16.1101 88.3742 14.3724 91.3442H66.6141Z" fill="#FDFDFD"/>
  <path d="M66.6142 91.3435C69.1451 91.3435 71.1895 89.2221 71.0635 86.664C70.9453 84.2713 68.8809 82.4338 66.4854 82.4338H13.6864C13.3075 82.4338 13 82.1263 13 81.7474V81.747C13 81.368 13.3075 81.0605 13.6864 81.0605H66.6142C69.8328 81.0605 72.4419 83.6697 72.4419 86.8883C72.4419 90.1069 69.8328 92.716 66.6142 92.716H13.6864C13.3075 92.716 13 92.4085 13 92.0295C13 91.6506 13.3075 91.3431 13.6864 91.3431H66.6142V91.3435Z" fill="#FFD400"/>
  <path d="M69.2037 83.2733L64.9963 83.3196L57.0594 83.3699L41.1852 83.4119L25.3113 83.3707L17.3744 83.3204L14.8199 83.2921C14.801 83.2529 14.783 83.2132 14.7637 83.1735L17.3744 83.1445L25.3113 83.0942L41.1852 83.053L57.0594 83.095L64.9963 83.1453L69.0899 83.1904C69.1291 83.2163 69.1657 83.2458 69.2037 83.2733ZM70.2362 84.3073C70.2216 84.2869 70.2063 84.2676 70.1914 84.2476L64.9963 84.1906L57.0594 84.1404L41.1852 84.0983L25.3113 84.1396L17.3744 84.1898L15.2016 84.2138C15.2165 84.2566 15.2295 84.299 15.2436 84.3418L17.374 84.3654L25.3109 84.4157L41.1848 84.4569L57.059 84.4153L64.9959 84.365L70.2362 84.3073ZM70.7871 85.3464C70.7812 85.3307 70.7757 85.3146 70.7698 85.2988L64.9967 85.2352L57.0598 85.185L41.1856 85.1429L25.3117 85.1842L17.3748 85.2344L15.4993 85.2553C15.5091 85.3 15.515 85.3448 15.524 85.3896L17.3752 85.41L25.3121 85.4602L41.186 85.5015L57.0602 85.4595L64.9971 85.4092L70.7871 85.3464ZM14.7637 90.6082L17.3744 90.6372L25.3113 90.6875L41.1852 90.7287L57.0594 90.6867L64.9963 90.6365L69.0903 90.5913C69.1291 90.565 69.1657 90.5355 69.2037 90.5081L64.9963 90.4617L57.0594 90.4114L41.1852 90.3698L25.3113 90.4111L17.3744 90.4613L14.8199 90.4896C14.8014 90.5293 14.783 90.5685 14.7637 90.6082ZM70.1914 89.5341C70.2063 89.5141 70.2216 89.4945 70.2362 89.4745L64.9967 89.4167L57.0598 89.3665L41.1856 89.3244L25.3117 89.3657L17.3748 89.4159L15.2444 89.4395C15.2303 89.4823 15.2173 89.5247 15.2024 89.5675L17.3748 89.5915L25.3117 89.6417L41.1856 89.683L57.0598 89.6414L64.9967 89.5911L70.1914 89.5341ZM70.7698 88.4825C70.7757 88.4668 70.7812 88.4507 70.7871 88.435L64.9967 88.3714L57.0598 88.3211L41.1856 88.2795L25.3117 88.3207L17.3748 88.371L15.5236 88.3914C15.515 88.4361 15.5087 88.4809 15.4989 88.5257L17.3744 88.5465L25.3113 88.5968L41.1852 88.638L57.0594 88.596L64.9963 88.5457L70.7698 88.4825ZM71.0322 87.4344C71.0337 87.4202 71.0369 87.4069 71.0385 87.3927L64.9963 87.3264L57.0594 87.2761L41.1852 87.2345L25.3113 87.2757L17.3744 87.326L15.6591 87.3448C15.6563 87.3908 15.6552 87.4367 15.6516 87.4823L17.3748 87.5011L25.3117 87.5514L41.1856 87.5926L57.0598 87.5506L64.9967 87.5003L71.0322 87.4344ZM71.0385 86.389C71.0369 86.3749 71.0337 86.3615 71.0322 86.3474L64.9967 86.281L57.0598 86.2307L41.1856 86.1887L25.3117 86.2299L17.3748 86.2802L15.6516 86.2991C15.6552 86.345 15.6563 86.391 15.6591 86.4365L17.3744 86.4554L25.3113 86.5056L41.1852 86.5469L57.0594 86.5048L64.9963 86.4546L71.0385 86.389Z" fill="#E1E3EF"/>
  <path d="M18.5843 88.9009L20.8611 87.601L23.138 88.9009V83.1431H18.5843V88.9009Z" fill="#FFD400"/>
  <path d="M18.8277 102.99C16.3714 102.99 14.3729 100.992 14.3729 98.5355C14.3729 96.0791 16.3714 94.0811 18.8277 94.0811H71.0694C69.3317 97.0511 69.3317 100.021 71.0694 102.991H18.8277V102.99Z" fill="#FDFDFD"/>
  <path d="M18.8277 102.994C16.2967 102.994 14.2523 100.872 14.3784 98.3144C14.4966 95.9217 16.561 94.0842 18.9565 94.0842H71.7554C72.1344 94.0842 72.4419 93.7767 72.4419 93.3978V93.3974C72.4419 93.0184 72.1344 92.7109 71.7554 92.7109H18.8277C15.6091 92.7109 13 95.3201 13 98.5386C13 101.757 15.6091 104.366 18.8277 104.366H71.7558C72.1348 104.366 72.4423 104.059 72.4423 103.68C72.4423 103.301 72.1348 102.993 71.7558 102.993H18.8277V102.994Z" fill="#004EFF"/>
  <path d="M16.3516 94.8408L20.4452 94.7957L28.3821 94.7454L44.2563 94.7034L60.1306 94.7446L68.0675 94.7949L70.6782 94.8239C70.6589 94.8632 70.6405 94.9029 70.622 94.9425L68.0675 94.9708L60.1306 95.0211L44.2563 95.0623L28.3821 95.0203L20.4452 94.97L16.2381 94.9237C16.2762 94.8966 16.3124 94.8667 16.3516 94.8408ZM20.4452 96.0154L28.3821 96.0657L44.2563 96.1077L60.1306 96.0664L68.0675 96.0162L70.1979 95.9926C70.212 95.9498 70.225 95.9074 70.2399 95.8646L68.0671 95.8406L60.1302 95.7904L44.2559 95.7491L28.3817 95.7912L20.4448 95.8414L15.2501 95.8984C15.2352 95.9184 15.2199 95.938 15.2053 95.9581L20.4452 96.0154ZM20.4452 97.0608L28.3821 97.111L44.2563 97.1531L60.1306 97.1118L68.0675 97.0616L69.9187 97.0411C69.9277 96.9964 69.9336 96.9516 69.9434 96.9068L68.0679 96.886L60.131 96.8358L44.2567 96.7945L28.3825 96.8365L20.4456 96.8868L14.6724 96.9504C14.6665 96.9661 14.6611 96.9818 14.6552 96.9979L20.4452 97.0608ZM70.6216 102.14L68.0671 102.112L60.1302 102.062L44.2559 102.021L28.3817 102.063L20.4448 102.113L16.2374 102.159C16.2755 102.187 16.312 102.216 16.3509 102.242L20.4448 102.288L28.3817 102.338L44.2559 102.38L60.1302 102.338L68.0671 102.288L70.6778 102.259C70.6589 102.219 70.6405 102.18 70.6216 102.14ZM20.4452 101.242L28.3821 101.292L44.2563 101.334L60.1306 101.293L68.0675 101.243L70.2399 101.219C70.225 101.176 70.212 101.133 70.1979 101.091L68.0675 101.067L60.1306 101.017L44.2563 100.976L28.3821 101.018L20.4452 101.068L15.2057 101.126C15.2203 101.146 15.2356 101.165 15.2505 101.185L20.4452 101.242ZM20.4452 100.197L28.3821 100.247L44.2563 100.289L60.1306 100.248L68.0675 100.197L69.943 100.176C69.9336 100.132 69.9273 100.087 69.9183 100.042L68.0671 100.022L60.1302 99.9715L44.2559 99.9303L28.3817 99.9723L20.4448 100.023L14.6544 100.086C14.6603 100.102 14.6658 100.118 14.6717 100.134L20.4452 100.197ZM20.4452 99.1511L28.3821 99.2014L44.2563 99.243L60.1306 99.2018L68.0675 99.1515L69.7907 99.1323C69.7871 99.0863 69.7859 99.0408 69.7832 98.9948L68.0679 98.976L60.131 98.9257L44.2567 98.8845L28.3825 98.9261L20.4456 98.9764L14.4038 99.0427C14.4054 99.0569 14.4085 99.0702 14.4101 99.0844L20.4452 99.1511ZM20.4452 98.1061L28.3821 98.1564L44.2563 98.1984L60.1306 98.1572L68.0675 98.1069L69.7828 98.0881C69.7856 98.0421 69.7867 97.9966 69.7903 97.9506L68.0671 97.9318L60.1302 97.8815L44.2559 97.8403L28.3817 97.8823L20.4448 97.9326L14.4093 97.9989C14.4078 98.0131 14.4046 98.0264 14.403 98.0406L20.4452 98.1061Z" fill="#E1E3EF"/>
  <path d="M52.8794 102.608L50.6025 101.308L48.3256 102.608V96.8503H52.8794V102.608Z" fill="#004EFF"/>
  <path d="M99.6062 93.6745L103.023 92.9167L99.3597 76.3951L95.9425 77.1529L99.6062 93.6745Z" fill="#22AAA6"/>
  <path opacity="0.65" d="M99.5659 74.9195C102.905 72.7394 103.844 68.2652 101.664 64.9262C99.484 61.5872 95.0099 60.6477 91.6708 62.8279C88.3318 65.008 87.3924 69.4822 89.5725 72.8212C91.7527 76.1602 96.2269 77.0997 99.5659 74.9195Z" fill="white"/>
  <path d="M99.2181 61.1256C94.9428 59.1409 89.8679 60.9976 87.8831 65.273C85.8984 69.5483 87.7551 74.6232 92.0305 76.608C96.3058 78.5927 101.381 76.736 103.365 72.4606C105.35 68.1853 103.493 63.1104 99.2181 61.1256ZM102.174 71.9073C100.494 75.5245 96.2006 77.0953 92.5838 75.4161C88.9666 73.7369 87.3958 69.4435 89.075 65.8263C90.7542 62.2091 95.0476 60.6383 98.6648 62.3175C102.282 63.9967 103.853 68.2901 102.174 71.9073Z" fill="#33D7D1"/>
  <path d="M111.84 101.477L112.895 81.9781C112.949 80.9948 112.189 80.167 111.233 80.167H94.847C93.8912 80.167 93.1317 80.9921 93.1847 81.9754C93.4631 87.1218 94.2403 101.477 94.2403 101.477C94.3282 103.102 95.6328 104.374 97.2123 104.374H108.868C110.448 104.374 111.752 103.103 111.84 101.477Z" fill="url(#paint5_linear_12030_26592)"/>
  <path d="M75.6389 83.0138C75.6389 83.0138 76.3654 90.5513 77.236 92.1213C78.1067 93.6914 88.3487 97.1358 89.2465 97.199C90.1442 97.2622 91.6054 96.5534 91.6054 96.5534C91.6054 96.5534 93.8666 97.3659 94.2385 97.168C94.6104 96.9701 92.2161 95.2598 91.2968 95.0792C90.3775 94.8986 88.981 95.6219 88.981 95.6219C88.981 95.6219 81.0676 92.3283 80.1809 90.9106C79.2942 89.493 78.6286 82.4656 78.6286 82.4656L75.6389 83.0138Z" fill="#FCD2C8"/>
  <path d="M76.5295 75.8669L75.3388 78.3567L77.7414 79.1012L78.4164 76.2361L76.5295 75.8669Z" fill="#FFDEDE"/>
  <path d="M75.7016 73.8892C75.7224 73.9772 75.7342 74.0667 75.7393 74.157C75.7766 74.8243 75.9156 75.495 76.2502 76.0719C76.6072 76.6876 77.2112 77.1856 77.9145 77.2959C78.5514 77.3957 79.212 77.1691 79.7209 76.7732C80.2299 76.3774 80.5994 75.8256 80.8708 75.2409C81.2968 74.3243 81.7928 73.1808 81.3153 72.2901C81.0848 71.8601 79.7567 71.0665 78.8075 70.5391C78.2298 70.2182 77.5112 70.3113 77.0313 70.7657L75.9741 71.7667C75.581 72.1389 75.4161 72.693 75.5418 73.2197L75.7016 73.8892Z" fill="#FFDEDE"/>
  <path d="M77.0668 72.313C76.7801 72.2121 76.4456 72.3849 76.3006 72.6519C76.1557 72.9193 76.1738 73.2508 76.2783 73.5363C76.3827 73.8218 76.5649 74.0711 76.7448 74.3162C76.3195 74.8322 76.0898 75.5057 76.111 76.1741C75.6248 75.8037 75.2227 75.3517 74.8586 74.8612C74.1832 73.951 73.3153 70.4237 76.069 69.6599C79.2628 66.1531 82.8765 72.2313 83.5472 71.9926C83.4526 72.7552 82.6734 73.9184 81.07 73.9663C80.3741 73.9871 79.6854 73.8434 79.1159 73.4432C78.8355 73.2465 78.5701 73.0207 78.2559 72.8848C78.023 72.7842 77.6904 73.7907 77.4964 73.6871C77.3091 73.5865 77.3044 72.3966 77.0668 72.313Z" fill="#2E344D"/>
  <path d="M75.0646 93.5048C73.0713 99.1899 73.7781 102.631 77.2504 103.787C78.6312 104.247 87.3256 104.547 93.515 104.255C97.4255 104.07 99.671 103.603 99.6573 101.16C99.6345 97.1404 87.9527 98.5887 85.2356 97.861C82.5185 97.1334 81.7704 91.6987 81.7704 91.6987L75.0646 93.5048Z" fill="#2E344D"/>
  <path d="M77.8866 78.4867C75.2802 76.61 72.4426 78.2546 72.4426 84.7959C72.4426 91.2174 73.5146 99.6279 73.5146 99.6279C77.7853 100.271 81.0699 99.2356 84.6069 97.276C84.6069 97.276 81.807 92.5266 80.7313 88.3848C79.8588 85.0248 79.9946 80.0049 77.8866 78.4867Z" fill="#33D7D1"/>
  <path d="M76.6719 83.5446C75.8877 83.6883 75.3481 84.4124 75.438 85.2045C75.6945 87.4637 76.2517 91.7638 76.8851 92.9062C77.7558 94.4762 85.9648 97.5743 86.8621 97.6375C87.4288 97.6776 88.2201 97.4097 88.7263 97.2067C89.055 97.0751 89.4175 97.0634 89.754 97.1733C90.4467 97.3999 91.5978 97.7423 91.8538 97.6065C92.2257 97.4085 89.8314 95.6983 88.9121 95.5177C88.3752 95.4124 87.6754 95.6151 87.1861 95.802C86.782 95.9563 86.3328 95.9281 85.9491 95.7278C84.3964 94.9168 80.5341 92.8226 79.8292 91.6955C79.2135 90.7114 78.7045 87.0227 78.4509 84.8593C78.3495 83.9887 77.5343 83.3863 76.6719 83.5446Z" fill="#FFDEDE"/>
  <path d="M76.1399 78.7429C73.08 79.5774 74.4984 85.9741 74.4984 85.9741C75.9133 86.4764 77.6628 86.2785 79.5843 85.7208C79.0031 84.1956 78.8979 77.9909 76.1399 78.7429Z" fill="white"/>
  <path d="M97.5835 98.9012H85.6449C85.2659 98.9012 84.9584 98.5937 84.9584 98.2148C84.9584 97.8358 85.2659 97.5283 85.6449 97.5283H96.9936L98.6009 86.9713C98.6583 86.5963 99.0113 86.3394 99.3828 86.396C99.7575 86.4533 100.015 86.8032 99.9581 87.1779L98.262 98.3181C98.211 98.6534 97.9227 98.9012 97.5835 98.9012Z" fill="#33D7D1"/>
  <path d="M52.2232 42.0582C52.4203 43.6236 53.9463 50.0898 52.7348 50.1204C51.1342 50.1613 46.2258 49.5722 46.0345 49.564C44.8737 49.5157 44.9114 42.308 44.9083 41.7076C44.8843 37.4593 51.6341 37.3839 52.2232 42.0582Z" fill="#2E344D"/>
  <path d="M43.8777 53.0969L43.7159 59.4085L39.0191 64.9731L41.4248 64.6314L45.8624 59.9983L46.0352 52.134L43.8777 53.0969Z" fill="#FFDEDE"/>
  <path d="M47.1048 47.0413C44.6218 47.4819 44.1136 50.0631 43.5363 53.6128L47.1445 53.9422L47.0538 50.325" fill="#33D7D1"/>
  <path d="M38.7141 84.4759C37.6586 85.9085 35.3938 87.4769 35.5427 88.132C35.6915 88.7866 40.5096 86.0601 40.5096 86.0601L40.25 84.377L38.7141 84.4759Z" fill="#2E344D"/>
  <path d="M47.1582 67.6715C46.7293 69.1917 39.3414 69.0079 39.4003 69.6641C39.6548 72.492 40.2207 82.2408 40.5097 85.0121L38.0844 85.0855C36.5945 79.6788 34.3419 71.2337 35.2746 67.6228C36.1919 64.0708 42.4391 62.7667 47.3188 63.7653C48.44 63.9943 47.7115 65.7178 47.1582 67.6715Z" fill="#2E344D"/>
  <path d="M44.1395 84.4759C43.0839 85.9085 40.8192 87.4769 40.9681 88.132C41.1169 88.7866 45.935 86.0601 45.935 86.0601L45.6754 84.377L44.1395 84.4759Z" fill="#2E344D"/>
  <path d="M51.9856 68.6318C50.7313 69.8393 44.9468 69.6626 44.5674 70.6459C45.4585 74.0888 46.1316 82.4584 46.0554 84.9977L43.63 85.0711C42.1401 79.6644 40.0164 72.181 40.435 68.4751C40.792 65.3134 50.1678 62.7341 51.982 63.7508C52.9838 64.3042 53.4484 67.2235 51.9856 68.6318Z" fill="#2E344D"/>
  <path d="M53.5049 57.3176C52.9834 48.7791 51.6038 46.1869 47.3886 46.9789C43.9261 47.6292 45.3779 51.4043 44.1138 58.3222L42.5273 64.2952C46.2403 64.1644 44.9777 64.0179 48.4681 64.7417C50.8086 65.5703 53.922 68.9357 53.7158 65.3445C53.7158 65.3445 53.6223 59.2431 53.5049 57.3176Z" fill="#33D7D1"/>
  <path d="M50.1421 43.1015C49.9737 41.9148 49.4471 41.5735 48.2297 42.1905C47.4486 42.5863 45.9775 42.8757 45.3398 42.5144C45.3842 44.1088 46.1802 46.5966 47.5083 46.6292C47.5813 46.9422 47.586 47.2265 47.5016 47.6431C47.5766 47.922 48.7045 47.8968 49.0532 47.5685C49.0233 47.1841 48.8301 46.5985 48.8419 46.2455C49.6446 46.1088 50.0102 45.3572 50.313 44.2788C51.5245 43.5586 50.6582 42.245 50.1421 43.1015Z" fill="#FFDEDE"/>
  <path d="M50.5778 53.0973L50.416 59.4085L45.7193 64.9735L48.125 64.6314C48.125 64.6314 52.2087 60.3321 52.5625 59.9983C52.9163 59.6649 52.7353 52.134 52.7353 52.134L50.5778 53.0973Z" fill="#FFDEDE"/>
  <path d="M49.8383 46.9941C52.3214 47.4348 53.3585 49.9649 53.2784 53.6163L49.6702 53.9458L49.7609 50.3286" fill="#33D7D1"/>
  <path d="M49.8318 64.2891H36.9732C36.798 64.2891 36.6559 64.4422 36.6559 64.6311C36.6559 64.82 36.798 64.9731 36.9732 64.9731H49.8318C50.007 64.9731 50.1491 64.82 50.1491 64.6311C50.1487 64.4422 50.007 64.2891 49.8318 64.2891Z" fill="#3371FF"/>
  <path d="M47.6429 55.04H37.6702C37.1098 55.04 36.6559 55.5207 36.6559 56.1133V64.2886H48.6576C48.6576 64.2886 48.6576 58.5457 48.6576 56.1105C48.6572 55.518 48.2033 55.04 47.6429 55.04Z" fill="#0037BB"/>
  <defs>
    <linearGradient id="paint0_linear_12030_26592" x1="74.1162" y1="53.0101" x2="78.4544" y2="137.823" gradientUnits="userSpaceOnUse">
      <stop stop-color="#6F87FC"/>
      <stop offset="1" stop-color="#824AD3"/>
    </linearGradient>
    <linearGradient id="paint1_linear_12030_26592" x1="100.61" y1="74.9824" x2="69.0304" y2="96.3237" gradientUnits="userSpaceOnUse">
      <stop offset="0.0025" stop-color="#56D6D5"/>
      <stop offset="1" stop-color="#00674B"/>
    </linearGradient>
    <linearGradient id="paint2_linear_12030_26592" x1="75.9822" y1="83.6606" x2="95.5733" y2="83.6606" gradientUnits="userSpaceOnUse">
      <stop stop-color="#2B6565"/>
      <stop offset="1" stop-color="#2BBA90"/>
    </linearGradient>
    <linearGradient id="paint3_linear_12030_26592" x1="119.209" y1="81.5156" x2="84.2681" y2="98.7897" gradientUnits="userSpaceOnUse">
      <stop offset="0.00060096" stop-color="#B2DB90"/>
      <stop offset="1" stop-color="#2BBA90"/>
    </linearGradient>
    <linearGradient id="paint4_linear_12030_26592" x1="112.068" y1="85.0388" x2="84.1704" y2="97.0814" gradientUnits="userSpaceOnUse">
      <stop offset="0.00060096" stop-color="#B2DB90"/>
      <stop offset="1" stop-color="#2BBA90"/>
    </linearGradient>
    <linearGradient id="paint5_linear_12030_26592" x1="103.04" y1="80.1666" x2="103.04" y2="104.374" gradientUnits="userSpaceOnUse">
      <stop stop-color="#004EFF"/>
      <stop offset="0.795" stop-color="#33D7D1"/>
    </linearGradient>
  </defs>
</svg>
