<svg width="80" height="80" viewBox="0 0 80 80" fill="none" xmlns="http://www.w3.org/2000/svg">
  <!-- Technology Solutions Icon -->
  <circle cx="40" cy="40" r="35" fill="#FFE047" stroke="#ffffff" stroke-width="2"/>
  
  <!-- Technology stack/solutions -->
  <g transform="translate(40,40)">
    <!-- Server/technology stack -->
    <rect x="-18" y="-20" width="36" height="8" rx="2" fill="none" stroke="#1f2937" stroke-width="2.5"/>
    <rect x="-18" y="-8" width="36" height="8" rx="2" fill="none" stroke="#1f2937" stroke-width="2.5"/>
    <rect x="-18" y="4" width="36" height="8" rx="2" fill="none" stroke="#1f2937" stroke-width="2.5"/>
    <rect x="-18" y="16" width="36" height="8" rx="2" fill="none" stroke="#1f2937" stroke-width="2.5"/>
    
    <!-- Server indicators -->
    <circle cx="-12" cy="-16" r="1.5" fill="#1f2937"/>
    <circle cx="-8" cy="-16" r="1.5" fill="#1f2937"/>
    <circle cx="-12" cy="-4" r="1.5" fill="#1f2937"/>
    <circle cx="-8" cy="-4" r="1.5" fill="#1f2937"/>
    <circle cx="-12" cy="8" r="1.5" fill="#1f2937"/>
    <circle cx="-8" cy="8" r="1.5" fill="#1f2937"/>
    <circle cx="-12" cy="20" r="1.5" fill="#1f2937"/>
    <circle cx="-8" cy="20" r="1.5" fill="#1f2937"/>
    
    <!-- Data flow lines -->
    <line x1="2" y1="-16" x2="12" y2="-16" stroke="#1f2937" stroke-width="2"/>
    <line x1="2" y1="-4" x2="12" y2="-4" stroke="#1f2937" stroke-width="2"/>
    <line x1="2" y1="8" x2="12" y2="8" stroke="#1f2937" stroke-width="2"/>
    <line x1="2" y1="20" x2="12" y2="20" stroke="#1f2937" stroke-width="2"/>
    
    <!-- Solution/output arrow -->
    <path d="M20,-5 L28,-5 M25,-8 L28,-5 L25,-2" stroke="#1f2937" stroke-width="2.5" stroke-linecap="round" stroke-linejoin="round"/>
    
    <!-- Solution symbol -->
    <circle cx="25" cy="10" r="8" fill="none" stroke="#1f2937" stroke-width="2"/>
    <path d="M20,10 L30,10 M25,5 L25,15" stroke="#1f2937" stroke-width="2" stroke-linecap="round"/>
  </g>
</svg>
