<svg xmlns="http://www.w3.org/2000/svg" width="130" height="106" viewBox="0 0 130 106" fill="none">
  <path d="M79.5798 96.776C78.1545 96.3032 77.0892 95.0936 76.7888 93.6068L74.7143 83.3396L56.9687 83.9697L54.7847 94.6659C54.4788 96.1639 55.7032 97.6667 57.1134 98.2184L64.5377 101.123C65.9186 101.664 67.403 101.879 68.8783 101.753L84.5687 100.41C85.0274 100.371 85.3953 100.011 85.4486 99.548C85.502 99.0854 85.8234 98.566 85.386 98.4209L79.5798 96.776Z" fill="#98EBE8"/>
  <path d="M79.7554 96.1515C78.3316 95.6847 77.2674 94.4902 76.9672 93.0222L74.8949 82.884L57.5818 83.5069L55.4 94.0686C55.0944 95.5477 55.9029 97.031 57.3116 97.5758L64.7286 100.444C66.108 100.978 67.5909 101.19 69.0647 101.066L84.7393 99.7401C85.1975 99.7014 85.5651 99.3454 85.6184 98.8886C85.6718 98.4319 85.3961 98.0008 84.9591 97.8575L79.7554 96.1515Z" fill="url(#paint0_linear_12030_26355)"/>
  <path d="M20.7079 90.1637C18.7835 90.2784 17.2092 89.03 17.2092 87.3801V27.9164C17.2092 26.2666 18.7835 24.9925 20.7079 25.0759L109.703 28.932C111.116 28.9932 112.26 30.1844 112.26 31.5876V82.161C112.26 83.5642 111.116 84.774 109.703 84.8582L20.7079 90.1637Z" fill="#98EBE8"/>
  <path d="M21.5077 90.1637C19.5833 90.2784 18.009 89.03 18.009 87.3801V27.9164C18.009 26.2666 19.5833 24.9925 21.5077 25.0759L110.503 28.932C111.916 28.9932 113.06 30.1844 113.06 31.5876V82.161C113.06 83.5642 111.916 84.774 110.503 84.8582L21.5077 90.1637Z" fill="#D6F7F6"/>
  <path opacity="0.3" d="M110.503 30.1222L21.5077 26.4611C20.4789 26.4188 19.6425 27.0985 19.6425 27.9795V74.2266V87.2904C19.6425 88.1714 20.4789 88.8375 21.5077 88.7785L110.503 83.668C111.26 83.6245 111.873 82.9791 111.873 82.2262V70.6653V31.5417C111.873 30.7889 111.26 30.1534 110.503 30.1222Z" fill="#FFE047"/>
  <path d="M21.5077 83.7269C21.1072 83.7467 20.781 83.484 20.781 83.1414V28.0235C20.781 27.6809 21.1072 27.415 21.5077 27.4309L110.503 30.9555C110.799 30.9672 111.039 31.2158 111.039 31.5095V78.7681C111.039 79.0619 110.799 79.3129 110.503 79.3275L21.5077 83.7269Z" fill="#FFE047"/>
  <path opacity="0.6" d="M101.212 81.1775C93.7253 76.5461 98.9548 63.3779 90.5465 56.7617C82.0694 50.0912 70.1412 58.2725 64.2031 51.3645C59.7817 46.2208 64.9552 40.0101 60.7335 35.1729C54.1129 27.587 37.1649 38.0201 29.3784 30.5467C28.2729 29.4857 27.1572 27.8759 26.5223 25.2932L21.5078 25.0759C19.5834 24.9925 18.009 26.2666 18.009 27.9164V87.3801C18.009 89.0299 19.5833 90.2783 21.5078 90.1636L110.503 84.8582C111.916 84.7739 113.06 83.5641 113.06 82.161V81.2618C107.151 83.267 103.538 82.6162 101.212 81.1775Z" fill="#D6F7F6"/>
  <path d="M69.2688 27.4363L62.4993 26.4592V22.7104H69.2688V27.4363Z" fill="#22AAA6"/>
  <path d="M67.3912 25.0605C72.3785 25.0605 76.4215 21.0175 76.4215 16.0303C76.4215 11.043 72.3785 7 67.3912 7C62.4039 7 58.361 11.043 58.361 16.0303C58.361 21.0175 62.4039 25.0605 67.3912 25.0605Z" fill="#004EFF"/>
  <path d="M69.7445 21.5953C72.7751 21.5953 75.2319 19.1385 75.2319 16.1078C75.2319 13.0772 72.7751 10.6204 69.7445 10.6204C66.7138 10.6204 64.257 13.0772 64.257 16.1078C64.257 19.1385 66.7138 21.5953 69.7445 21.5953Z" fill="#D6F7F6"/>
  <path d="M72.8157 18.8698C74.3124 17.3732 74.3124 14.9466 72.8157 13.45C71.3191 11.9534 68.8926 11.9534 67.3959 13.45C65.8993 14.9466 65.8993 17.3732 67.3959 18.8698C68.8926 20.3664 71.3191 20.3664 72.8157 18.8698Z" fill="#004EFF"/>
  <path opacity="0.5" d="M71.6568 17.4806C72.4748 16.6626 72.4748 15.3364 71.6568 14.5184C70.8388 13.7004 69.5125 13.7004 68.6945 14.5184C67.8765 15.3364 67.8765 16.6626 68.6945 17.4806C69.5125 18.2986 70.8388 18.2986 71.6568 17.4806Z" fill="#98EBE8"/>
  <path d="M71.9025 15.7665C72.513 15.7665 73.008 15.2715 73.008 14.6609C73.008 14.0504 72.513 13.5554 71.9025 13.5554C71.2919 13.5554 70.7969 14.0504 70.7969 14.6609C70.7969 15.2715 71.2919 15.7665 71.9025 15.7665Z" fill="#D6F7F6"/>
  <path d="M72.27 26.4783L63.2014 26.066C62.8136 26.0483 62.4993 26.3228 62.4993 26.679V29.9914C62.4993 30.7847 63.1994 31.4597 64.0632 31.4992L71.4075 31.8351C72.272 31.8746 72.9728 31.2633 72.9728 30.4696V27.1555C72.9728 26.7991 72.6582 26.496 72.27 26.4783Z" fill="#98EBE8"/>
  <path d="M60.6939 26.0776C60.2721 26.07 59.8685 26.2565 59.6015 26.5832L59.4882 26.7218L62.4993 26.9368L63.4462 26.0774C63.3719 26.074 62.1125 26.1034 60.6939 26.0776Z" fill="#98EBE8"/>
  <path d="M104.923 38.6328C104.923 37.9809 104.392 37.4391 103.735 37.4225L28.5407 35.5199C27.686 35.4982 26.9914 36.0857 26.9914 36.832V78.1959C26.9914 78.9428 27.6863 79.5161 28.5414 79.4765L103.763 75.9934C104.42 75.963 104.951 75.4096 104.95 74.7573L104.923 38.6328Z" fill="#D6F7F6"/>
  <path d="M52.6648 32.2776C52.6648 32.8648 52.1028 33.3245 51.4541 33.3042L28.283 32.5839C27.5809 32.5621 26.9918 32.0477 26.9918 31.435V31.3556C26.9918 30.743 27.5622 30.2662 28.2643 30.2907L51.4536 31.0975C52.1024 31.1201 52.6648 31.6143 52.6648 32.2015V32.2776H52.6648Z" fill="#D6F7F6"/>
  <mask id="mask0_12030_26355" style="mask-type:luminance" maskUnits="userSpaceOnUse" x="26" y="35" width="79" height="45">
    <path d="M104.923 38.6328C104.923 37.9809 104.392 37.4391 103.735 37.4225L28.5407 35.5199C27.686 35.4982 26.9914 36.0857 26.9914 36.832V78.1959C26.9914 78.9428 27.6863 79.5161 28.5414 79.4765L103.763 75.9934C104.42 75.963 104.951 75.4096 104.95 74.7573L104.923 38.6328Z" fill="white"/>
  </mask>
  <g mask="url(#mask0_12030_26355)">
    <path d="M69.2457 81.2734C53.7374 82.2029 48.1009 84.4289 45.5107 81.3889C43.107 78.568 45.0984 73.3125 47.9442 70.2641C52.3876 65.5044 59.3848 65.109 68.6932 64.6463C77.1793 64.2245 82.285 63.9707 86.2536 67.2386C89.9135 70.2521 92.2283 75.951 89.9765 79.0508C87.8703 81.9503 83.3086 80.4306 69.2457 81.2734Z" fill="#33D7D1"/>
    <path d="M63.5938 64.7527L61.786 65.2239C61.3412 65.3399 61.138 65.8206 61.3864 66.1708C62.6211 67.9121 65.8661 72.2465 67.879 72.6917C69.9452 73.1487 73.7629 67.4664 75.0217 65.4866C75.2386 65.1454 75.0646 64.711 74.6672 64.6012L73.3921 64.2488C72.3447 63.9593 71.2382 63.8657 70.1344 63.9743L65.2763 64.4524C64.7095 64.5082 64.1467 64.6087 63.5938 64.7527Z" fill="url(#paint1_linear_12030_26355)"/>
    <path d="M64.9263 58.2602C64.9263 58.2602 65.9131 64.8153 64.5512 65.4767L68.4135 69.2793L72.2703 64.5691C72.2703 64.5691 70.8174 63.576 71.1984 58.1819L64.9263 58.2602Z" fill="#FFE45A"/>
    <path d="M62.6242 48.8369C62.4829 49.0131 60.6429 57.3561 66.9716 58.1518C73.1642 58.9303 73.4314 52.8907 73.3524 50.3301C73.2733 47.7689 70.4582 46.8182 68.835 46.6259C67.2025 46.4326 63.125 48.2126 62.6242 48.8369Z" fill="#FFEFA2"/>
    <path d="M62.6242 48.8369C62.4829 49.0131 60.6429 57.3561 66.9716 58.1518C73.1642 58.9303 73.4314 52.8907 73.3524 50.3301C73.2733 47.7689 70.4582 46.8182 68.835 46.6259C67.2025 46.4326 63.125 48.2126 62.6242 48.8369Z" fill="#FFE97E"/>
    <path d="M62.2569 53.6968C62.2569 53.6968 61.9379 52.3365 60.845 53.1896C59.748 54.0459 61.4918 56.2923 62.9217 56.1864L62.2569 53.6968Z" fill="#FFE97E"/>
    <path d="M73.1647 52.7167C72.9886 52.8293 72.4838 55.9694 72.4838 55.9694C72.4838 55.9694 73.3688 56.0595 74.0072 54.9302C74.6443 53.8033 74.9493 51.5758 73.1647 52.7167Z" fill="#FFD400"/>
    <path d="M75.5595 46.7464C74.9185 45.7377 73.2943 46.1993 72.818 45.2237C72.4172 44.4028 73.3571 43.6467 72.8527 42.9348C72.4302 42.3383 71.3952 42.3373 71.2108 42.3371C69.8054 42.3357 69.4832 43.3744 68.4757 43.3372C67.2407 43.2917 67.1918 41.7158 65.5501 41.0241C63.9481 40.3491 61.5911 40.8348 60.6334 42.0384C59.8867 42.9768 60.5225 43.683 59.5426 44.8917C58.8666 45.7255 58.2675 45.7573 57.9307 46.5784C57.6141 47.3504 57.8288 48.0893 57.9966 48.6378C58.3984 49.9514 59.1456 50.531 60.271 51.9236C60.7737 52.5457 61.4616 53.4658 62.1701 54.6757C62.4665 55.4036 62.8902 56.5289 63.2819 57.9505C63.6378 59.242 63.6163 59.5047 63.9482 59.9193C65.0893 61.345 67.6759 61.1598 68.7573 61.0825C69.9924 60.9941 71.5223 60.8846 72.2885 59.874C72.7018 59.3288 72.6496 58.8426 72.7449 57.5395C72.8129 56.6097 72.9535 55.3051 73.2733 53.723C73.2795 53.7231 73.4154 52.9981 73.77 52.1059C74.2123 50.993 74.6712 50.8159 75.1686 49.6689C75.5668 48.7505 76.0803 47.5661 75.5595 46.7464ZM70.4879 55.4444C69.7267 55.6427 69.212 55.4739 68.1751 55.4261C66.09 55.3302 65.4279 56.2466 64.4357 55.8542C64.0211 55.6902 63.06 55.2284 62.8558 54.3299C62.7377 53.7465 62.6544 52.9491 62.7896 52.0255C62.9547 50.8976 63.1452 49.5972 64.1202 49.0256C65.5292 48.1995 67.3196 49.6341 68.5979 48.7154C69.085 48.3653 69.2805 47.8297 69.3692 47.4222C69.6516 47.5148 71.888 48.2887 72.7077 50.5215C73.2119 51.8949 72.924 53.1201 72.6789 53.7872C72.2184 54.4428 71.5139 55.1772 70.4879 55.4444Z" fill="url(#paint2_linear_12030_26355)"/>
    <path d="M66.1812 56.8442C66.9873 57.0682 68.1961 57.2127 69.5436 56.7219C69.6832 56.6711 69.8024 56.8125 69.6861 56.8911C69.2053 57.2159 68.5018 57.5634 67.7343 57.519C67.0985 57.4822 66.5133 57.26 66.0616 57.0265C65.9321 56.9596 66.0345 56.8034 66.1812 56.8442Z" fill="#FFE047"/>
  </g>
  <path d="M26.9914 74.1816V79.0808C26.9914 79.8246 27.6481 80.4115 28.4996 80.3708L103.846 76.7724C104.5 76.7412 104.951 76.1797 104.951 75.5301L104.948 71.2517L26.9914 74.1816Z" fill="url(#paint3_linear_12030_26355)"/>
  <path d="M32.6645 76.4418C32.6645 75.7049 31.9836 75.1344 31.1417 75.1676L29.6261 75.2262C28.7779 75.2597 28.0132 75.8905 28.0132 76.6329V77.7708C28.0132 78.5132 28.7779 79.0817 29.6262 79.0429L31.1044 78.9761C31.9464 78.9376 32.646 78.3087 32.6459 77.5718L32.6645 76.4418Z" fill="#D6F7F6"/>
  <path d="M103.152 74.2569C103.152 74.6746 102.811 75.0297 102.39 75.0476L54.4679 77.1767L35.6321 78.0134C35.0981 78.0376 34.655 77.6749 34.655 77.2036V77.0171C34.655 76.5457 35.0981 76.146 35.6321 76.1242L54.4679 75.3451L102.383 73.3654C102.805 73.3488 103.149 73.6732 103.149 74.0909L103.152 74.2569Z" fill="#D6F7F6"/>
  <path d="M54.4526 75.345V77.1766L35.6244 78.0132C35.0905 78.0375 34.6549 77.6747 34.6549 77.2034V77.0169C34.6549 76.5456 35.0904 76.1458 35.6244 76.1241L54.4526 75.345Z" fill="#6695FF"/>
  <path d="M57.2666 76.241C57.2668 77.1439 56.4664 77.9125 55.4756 77.9579C54.4815 78.0035 53.673 77.3041 53.6728 76.3957C53.6725 75.4873 54.4807 74.7184 55.4747 74.6784C56.4654 74.6385 57.2663 75.3381 57.2666 76.241Z" fill="url(#paint4_linear_12030_26355)"/>
  <path d="M98.8076 77.7124C103.897 77.7124 108.023 76.8185 108.023 75.7158C108.023 74.6131 103.897 73.7192 98.8076 73.7192C93.718 73.7192 89.5921 74.6131 89.5921 75.7158C89.5921 76.8185 93.718 77.7124 98.8076 77.7124Z" fill="#33D7D1"/>
  <path d="M89.5998 75.7158C89.5998 75.7158 89.1712 77.8631 89.1712 77.8819C89.1712 77.9008 108.39 77.8819 108.39 77.8819L108.03 75.7158H89.5998Z" fill="#22AAA6"/>
  <path d="M98.7806 79.9727C104.086 79.9727 108.387 79.0409 108.387 77.8914C108.387 76.7419 104.086 75.8101 98.7806 75.8101C93.475 75.8101 89.1739 76.7419 89.1739 77.8914C89.1739 79.0409 93.475 79.9727 98.7806 79.9727Z" fill="#ADEFED"/>
  <path d="M98.7806 103.009C102.327 103.009 105.202 102.07 105.202 100.913C105.202 99.7558 102.327 98.8176 98.7806 98.8176C95.2343 98.8176 92.3593 99.7558 92.3593 100.913C92.3593 102.07 95.2343 103.009 98.7806 103.009Z" fill="#ADEFED"/>
  <path d="M105.202 99.1321H92.3593V100.843H105.202V99.1321Z" fill="#ADEFED"/>
  <path d="M98.7806 101.558C102.606 101.558 105.707 100.546 105.707 99.2979C105.707 98.0495 102.606 97.0376 98.7806 97.0376C94.9553 97.0376 91.8543 98.0495 91.8543 99.2979C91.8543 100.546 94.9553 101.558 98.7806 101.558Z" fill="#4C83FF"/>
  <path d="M98.7808 79.6712C103.578 79.6712 107.468 78.8785 107.468 77.9007C107.468 76.9228 103.578 76.1301 98.7808 76.1301C93.9833 76.1301 90.0941 76.9228 90.0941 77.9007C90.0941 78.8785 93.9833 79.6712 98.7808 79.6712Z" fill="#3371FF"/>
  <path d="M90.0884 77.9006L91.8543 99.2979H105.707L107.473 77.9006H90.0884Z" fill="#4C83FF"/>
  <g opacity="0.3">
    <path d="M107.467 77.9007C107.467 76.9228 103.578 76.1301 98.7807 76.1301C97.1151 76.1301 95.5592 76.2257 94.2373 76.3913C94.0319 77.0755 93.9219 77.8015 93.9553 78.5599C94.1468 82.9086 98.8705 84.3608 100.505 88.4674C101.501 90.9707 101.539 94.9393 97.7835 101.535C98.1091 101.55 98.4421 101.558 98.7807 101.558C102.606 101.558 105.707 100.546 105.707 99.2979L107.473 77.9007H107.467Z" fill="#B2C9FF"/>
  </g>
  <path d="M91.5485 94.9951C95.1954 95.3439 102.331 95.3456 106.012 95.0002C106.101 94.9918 106.172 94.9143 106.18 94.8164L107.166 82.8709C107.175 82.7597 107.101 82.6613 107 82.6506C103.489 82.2806 94.0114 82.2825 90.5616 82.6563C90.4607 82.6672 90.3868 82.7655 90.3959 82.8765L91.3809 94.8114C91.389 94.9091 91.4596 94.9866 91.5485 94.9951Z" fill="#48DBD6"/>
  <path d="M106.146 82.7561C105.89 86.7604 105.635 90.7647 105.379 94.769C105.366 94.9783 105.528 95.1518 105.722 95.1349C105.726 95.1346 105.729 95.1343 105.733 95.134C105.889 95.1204 106.012 94.986 106.024 94.8176C106.305 90.8161 106.585 86.8145 106.866 82.813C106.879 82.6247 106.749 82.4603 106.574 82.4449C106.546 82.4423 106.518 82.4399 106.489 82.4374C106.312 82.4222 106.158 82.5654 106.146 82.7561Z" fill="#22AAA6"/>
  <path d="M104.958 82.6776C104.741 86.7357 104.524 90.7937 104.307 94.8518C104.296 95.0568 104.453 95.2263 104.643 95.2144C104.646 95.2142 104.649 95.2141 104.652 95.2138C104.813 95.2038 104.941 95.0662 104.951 94.8931C105.194 90.8369 105.436 86.7806 105.678 82.7244C105.69 82.5337 105.555 82.3696 105.378 82.3594C105.35 82.3577 105.321 82.3561 105.293 82.3545C105.118 82.3446 104.968 82.489 104.958 82.6776Z" fill="#22AAA6"/>
  <path d="M103.769 82.625C103.592 86.721 103.416 90.8169 103.239 94.9129C103.23 95.1143 103.384 95.2805 103.57 95.272C103.573 95.2719 103.576 95.2717 103.578 95.2716C103.742 95.2641 103.874 95.1235 103.883 94.9468L104.49 82.6627C104.499 82.4713 104.362 82.3085 104.184 82.3013C104.156 82.3001 104.128 82.299 104.099 82.2978C103.925 82.2909 103.777 82.4369 103.769 82.625Z" fill="#22AAA6"/>
  <path d="M102.581 82.5891C102.445 86.7122 102.31 90.8354 102.174 94.9585C102.167 95.1571 102.318 95.3201 102.502 95.314C102.505 95.3139 102.507 95.3138 102.509 95.3137C102.676 95.3082 102.81 95.1647 102.817 94.9849C102.979 90.8627 103.14 86.7404 103.301 82.6181C103.309 82.4265 103.169 82.2654 102.992 82.2603C102.964 82.2595 102.935 82.2587 102.907 82.2579C102.733 82.2531 102.587 82.4007 102.581 82.5891Z" fill="#22AAA6"/>
  <path d="M101.392 82.5653L101.111 94.9915C101.107 95.1873 101.255 95.3473 101.436 95.3432C101.439 95.3432 101.441 95.3431 101.443 95.3431C101.612 95.3393 101.749 95.193 101.755 95.0104C101.874 90.8689 101.993 86.7274 102.113 82.5859C102.118 82.3946 101.978 82.2353 101.8 82.2319C101.772 82.2314 101.744 82.2308 101.716 82.2303C101.541 82.227 101.396 82.3767 101.392 82.5653Z" fill="#22AAA6"/>
  <path d="M100.204 82.5518C100.152 86.7058 100.101 90.8598 100.05 95.0138C100.048 95.2069 100.194 95.3641 100.372 95.3618C100.375 95.3618 100.377 95.3618 100.379 95.3617C100.551 95.3595 100.69 95.2105 100.693 95.0252C100.77 90.8715 100.847 86.7178 100.924 82.5641C100.928 82.3732 100.786 82.2158 100.609 82.2138C100.581 82.2135 100.553 82.2132 100.525 82.2129C100.35 82.2111 100.206 82.3626 100.204 82.5518Z" fill="#22AAA6"/>
  <path d="M99.0152 82.5475C99.0068 86.7073 98.9984 90.867 98.99 95.0267C98.9896 95.217 99.1327 95.3716 99.3092 95.3709C99.3115 95.3709 99.3139 95.3709 99.3162 95.3709C99.4903 95.3701 99.6314 95.2183 99.633 95.0305C99.6673 90.8709 99.7016 86.7112 99.736 82.5516C99.7376 82.3612 99.5952 82.2058 99.4187 82.2051C99.3907 82.205 99.3627 82.2049 99.3347 82.2048C99.1587 82.2043 99.0156 82.3577 99.0152 82.5475Z" fill="#22AAA6"/>
  <path d="M97.827 82.5519C97.8613 86.7114 97.8956 90.8709 97.93 95.0304C97.9315 95.2181 98.0726 95.3699 98.2466 95.3707C98.249 95.3707 98.2513 95.3707 98.2536 95.3707C98.4301 95.3715 98.5733 95.2169 98.5729 95.0266C98.5645 90.867 98.5561 86.7074 98.5477 82.5478C98.5473 82.358 98.4042 82.2045 98.2282 82.2051C98.2002 82.2052 98.1722 82.2053 98.1442 82.2054C97.9677 82.2061 97.8254 82.3615 97.827 82.5519Z" fill="#22AAA6"/>
  <path d="M96.6387 82.5647C96.7157 86.7179 96.7927 90.8712 96.8697 95.0245C96.8731 95.2098 97.0121 95.3587 97.1839 95.3611C97.1861 95.3611 97.1882 95.3611 97.1903 95.3611C97.3693 95.3635 97.5151 95.2062 97.5127 95.0131C97.4616 90.8595 97.4105 86.7059 97.3594 82.5523C97.3571 82.363 97.2131 82.2115 97.0377 82.2134C97.0096 82.2137 96.9815 82.214 96.9535 82.2143C96.7765 82.2164 96.6352 82.3738 96.6387 82.5647Z" fill="#22AAA6"/>
  <path d="M95.4503 82.5869C95.5697 86.7277 95.689 90.8685 95.8084 95.0092C95.8136 95.1918 95.9504 95.338 96.1196 95.3419C96.1219 95.342 96.1241 95.342 96.1264 95.3421C96.308 95.3462 96.4561 95.1862 96.4516 94.9904C96.3581 90.849 96.2646 86.7076 96.1711 82.5663C96.1668 82.3776 96.0221 82.2279 95.8472 82.2313C95.8189 82.2318 95.7907 82.2324 95.7626 82.2329C95.5851 82.2363 95.4448 82.3957 95.4503 82.5869Z" fill="#22AAA6"/>
  <path d="M94.2617 82.6194C94.4229 86.7406 94.5842 90.8618 94.7454 94.983C94.7524 95.1627 94.8866 95.3062 95.0533 95.3118C95.0557 95.3119 95.0582 95.312 95.0606 95.312C95.2448 95.3182 95.3954 95.1552 95.3889 94.9566C95.2534 90.8345 95.1179 86.7124 94.9824 82.5903C94.9762 82.4019 94.8304 82.2542 94.6557 82.2592C94.6275 82.2599 94.5993 82.2608 94.5712 82.2616C94.3935 82.2667 94.2542 82.4278 94.2617 82.6194Z" fill="#22AAA6"/>
  <path d="M93.0732 82.6647C93.2755 86.758 93.4778 90.8512 93.6801 94.9444C93.6888 95.121 93.8205 95.2616 93.9843 95.2692C93.987 95.2694 93.9897 95.2695 93.9924 95.2696C94.1792 95.2783 94.3328 95.112 94.3241 94.9105C94.1473 90.816 93.9705 86.7215 93.7938 82.627C93.7857 82.4388 93.6383 82.2928 93.4638 82.2998C93.4354 82.3009 93.407 82.3021 93.3787 82.3033C93.2011 82.3106 93.0637 82.4734 93.0732 82.6647Z" fill="#22AAA6"/>
  <path d="M91.8848 82.7274C92.127 86.7816 92.3692 90.8357 92.6115 94.8899C92.6218 95.0628 92.7498 95.2004 92.9102 95.2106C92.9132 95.2108 92.9162 95.211 92.9192 95.2112C93.1094 95.2233 93.267 95.0538 93.256 94.8486C93.0391 90.7926 92.8221 86.7366 92.6052 82.6806C92.5951 82.4918 92.4453 82.3474 92.2703 82.3574C92.2417 82.3591 92.2132 82.3607 92.1849 82.3624C92.0082 82.3728 91.8734 82.5368 91.8848 82.7274Z" fill="#22AAA6"/>
  <path d="M90.6976 82.8176C90.9778 86.8161 91.2581 90.8146 91.5383 94.8131C91.5501 94.9813 91.6734 95.1156 91.8292 95.1294C91.8329 95.1297 91.8365 95.13 91.8402 95.1304C92.0343 95.1475 92.197 94.974 92.1836 94.7645C91.9283 90.7632 91.6729 86.7618 91.4176 82.7605C91.4054 82.5696 91.2508 82.4264 91.074 82.4418C91.0451 82.4443 91.0165 82.4469 90.9882 82.4494C90.8141 82.4652 90.6844 82.6296 90.6976 82.8176Z" fill="#22AAA6"/>
  <path opacity="0.3" d="M98.2466 95.3705C98.249 95.3705 98.2513 95.3705 98.2537 95.3706C98.3477 95.371 98.432 95.327 98.4904 95.2573C98.6844 95.2578 98.8785 95.2579 99.0725 95.2574C99.1309 95.3271 99.2152 95.3711 99.3092 95.3708C99.3115 95.3708 99.3139 95.3708 99.3162 95.3707C99.4101 95.3703 99.4941 95.3258 99.5521 95.2555C99.7468 95.2544 99.9411 95.2528 100.135 95.2507C100.194 95.3198 100.278 95.363 100.372 95.3618C100.375 95.3617 100.377 95.3617 100.379 95.3617C100.426 95.3611 100.471 95.3493 100.511 95.3288C101.384 92.2482 101.139 90.061 100.505 88.4675C99.4508 85.8193 97.1123 84.2749 95.5329 82.3458C95.517 82.3648 95.503 82.3856 95.4912 82.4079C95.3035 82.4119 95.1177 82.4162 94.9342 82.4209C94.8763 82.3211 94.7726 82.2558 94.6557 82.2592C94.6275 82.2599 94.5993 82.2607 94.5712 82.2616C94.4543 82.265 94.3544 82.3361 94.3016 82.4387C94.1123 82.4446 93.926 82.4508 93.7433 82.4575C93.6844 82.3588 93.5803 82.295 93.4637 82.2997C93.4353 82.3009 93.407 82.3021 93.3787 82.3032C93.2622 82.308 93.1633 82.3799 93.1115 82.4827C92.9198 82.491 92.7329 82.4999 92.5516 82.5092C92.4911 82.4121 92.3864 82.3506 92.2703 82.3572C92.2417 82.3589 92.2132 82.3606 92.1849 82.3622C92.0691 82.3691 91.9716 82.442 91.9212 82.545C91.7249 82.5573 91.5369 82.5703 91.3583 82.584C91.2953 82.4895 91.1895 82.4316 91.074 82.4417C91.0451 82.4442 91.0165 82.4467 90.9882 82.4493C90.8734 82.4597 90.7783 82.5348 90.7303 82.6385C90.6726 82.6443 90.6164 82.6501 90.5616 82.656C90.4607 82.667 90.3868 82.7652 90.396 82.8762L91.3809 94.8111C91.389 94.9088 91.4596 94.9863 91.5485 94.9948C91.5677 94.9967 91.5871 94.9985 91.6065 95.0003C91.6596 95.0725 91.7389 95.1212 91.8293 95.1292C91.8329 95.1295 91.8366 95.1299 91.8402 95.1302C91.9328 95.1384 92.0181 95.1031 92.0807 95.0414C92.2742 95.0568 92.4753 95.0715 92.6831 95.0853C92.7376 95.1571 92.8186 95.2046 92.9102 95.2105C92.9132 95.2106 92.9162 95.2108 92.9192 95.211C93.0126 95.2169 93.0979 95.1791 93.1595 95.1149C93.3529 95.126 93.5513 95.1366 93.7539 95.1464C93.8095 95.2181 93.8917 95.2648 93.9843 95.2691C93.9869 95.2693 93.9896 95.2694 93.9923 95.2695C94.086 95.2739 94.1713 95.2342 94.232 95.1682C94.4252 95.1764 94.6217 95.184 94.8211 95.1911C94.8774 95.2625 94.9603 95.3086 95.0533 95.3118C95.0557 95.3119 95.0582 95.312 95.0606 95.312C95.1546 95.3152 95.2398 95.2741 95.2999 95.2069C95.4931 95.2127 95.6885 95.2181 95.8858 95.2229C95.9428 95.294 96.0262 95.3396 96.1196 95.3418C96.1219 95.3418 96.1241 95.3419 96.1264 95.3419C96.2206 95.3441 96.3054 95.3019 96.365 95.2336C96.5583 95.2375 96.753 95.2409 96.9488 95.2439C97.0064 95.3146 97.0902 95.3597 97.184 95.361C97.1861 95.361 97.1882 95.3611 97.1904 95.3611C97.2845 95.3623 97.3692 95.3191 97.4282 95.2501C97.6217 95.2522 97.816 95.2539 98.0108 95.2552C98.0687 95.3255 98.1528 95.3701 98.2466 95.3705Z" fill="#D6F7F6"/>
  <path d="M17.1684 92.8839L38.3955 91.9609L62.8528 92.8179L38.7251 98.0918L17.1684 92.8839Z" fill="#3371FF"/>
  <path d="M34.9938 105.41L17.077 102.373C15.3454 102.068 14 99.7978 14 97.2995V97.272C14 94.7737 15.3454 92.7912 17.077 92.8555L36.0831 93.5615L34.9938 105.41Z" fill="#004EFF"/>
  <path d="M62.8823 102.755L36.6569 104.733C34.0704 104.928 31.9291 103.027 31.9291 100.484V98.7583C31.9291 96.2148 34.0704 94.0945 36.6569 94.024L62.8823 93.3091C61.649 96.7384 61.3733 99.9498 62.8823 102.755Z" fill="#3371FF"/>
  <path d="M63.1241 103.24L35.3326 105.407C33.0629 105.584 31.1821 103.024 31.1821 99.6961V99.6595C31.1821 96.3319 33.0629 93.578 35.3326 93.5216L63.1241 92.8309C63.2913 92.8267 63.4267 93.0483 63.4267 93.3257C63.4267 93.6032 63.2913 93.8321 63.1241 93.8372L35.3326 94.6706C33.5067 94.7254 31.9991 96.945 31.9991 99.6176V99.654C31.9991 102.327 33.5067 104.391 35.3326 104.258L63.1241 102.233C63.2913 102.221 63.4267 102.436 63.4267 102.714C63.4267 102.991 63.2913 103.227 63.1241 103.24Z" fill="#4C83FF"/>
  <path opacity="0.5" d="M29.4378 102.905L25.608 102.236C24.7137 99.7953 24.781 97.553 25.608 94.873L29.4378 95.1453C28.6529 97.9654 28.7717 100.52 29.4378 102.905Z" fill="#D6F7F6"/>
  <path d="M31.6084 33.1176C32.2223 33.4293 32.9935 33.1431 33.331 32.4784C33.6686 31.8136 33.4445 31.0221 32.8306 30.7104C32.7988 30.6942 32.7663 30.6807 32.7338 30.6677C32.8478 30.2999 32.9338 29.9292 32.9915 29.5584C33.0267 29.5583 33.062 29.5577 33.0979 29.5545C33.7983 29.492 34.3541 28.8484 34.3395 28.1169C34.3248 27.3854 33.7451 26.8429 33.0448 26.9054C33.0081 26.9087 32.9722 26.9144 32.9364 26.9208C32.8633 26.5583 32.763 26.2042 32.6366 25.8614C32.6688 25.8426 32.7008 25.8231 32.7321 25.8011C33.3314 25.3813 33.523 24.5527 33.16 23.9505C32.7971 23.3482 32.0172 23.2002 31.418 23.62C31.3872 23.6416 31.3584 23.6648 31.3298 23.6884C31.0931 23.4267 30.8336 23.1843 30.5527 22.963C30.5724 22.9306 30.5918 22.8978 30.6093 22.8634C30.9468 22.1987 31.3878 21.4725 30.7691 21.1705C29.3378 20.4718 28.7236 21.0699 28.3861 21.7346C28.3687 21.7691 28.3536 21.804 28.3391 21.8391C27.9947 21.7429 27.6458 21.6764 27.2949 21.6397C27.2971 21.6028 27.2988 21.5657 27.2981 21.5282C27.2834 20.7967 27.5004 20.4009 26.7974 20.3872C25.2643 20.3574 24.747 21.0228 24.7617 21.7543C24.7624 21.7926 24.7656 21.8299 24.7694 21.8671C24.418 21.9672 24.073 22.0953 23.7372 22.2501C23.7212 22.2175 23.7046 22.1851 23.6857 22.1536C23.3228 21.5513 22.5428 21.4034 21.9436 21.8232C21.3443 22.2431 21.1527 23.0716 21.5157 23.6739C21.5342 23.7048 21.5546 23.7336 21.5753 23.7621C21.3099 24.0275 21.0614 24.3157 20.8318 24.6248C20.8021 24.6062 20.7719 24.588 20.7401 24.5718C20.1262 24.2601 19.355 24.5463 19.0175 25.2111C18.68 25.8758 18.904 26.6673 19.518 26.979C19.5498 26.9952 19.5822 27.0087 19.6148 27.0217C19.5007 27.3895 19.4147 27.7602 19.3571 28.1311C19.3219 28.1312 19.2866 28.1318 19.2507 28.1349C18.5503 28.1974 17.9944 28.841 18.0091 29.5725C18.0238 30.3041 18.6034 30.8464 19.3038 30.784C19.3404 30.7807 19.3764 30.775 19.4121 30.7686C19.4853 31.1311 19.5855 31.4852 19.712 31.828C19.6798 31.8468 19.6477 31.8663 19.6164 31.8883C19.0172 32.3081 18.8256 33.1367 19.1885 33.739C19.5514 34.3413 20.7529 34.6211 21.3521 34.2013C21.3828 34.1797 20.9902 34.0246 21.0187 34.001C21.2554 34.2627 21.515 34.5051 21.7959 34.7264C21.7761 34.7588 21.7568 34.7916 21.7393 34.826C21.4018 35.4908 21.6259 36.2823 22.2398 36.594C22.8537 36.9057 23.6249 36.6195 23.9624 35.9548C23.9799 35.9203 23.995 35.8854 24.0095 35.8503C24.3539 35.9465 24.7028 36.013 25.0537 36.0497C25.0515 36.0866 25.0498 36.1236 25.0505 36.1612C25.0652 36.8927 25.6449 37.4351 26.3453 37.3726C27.0457 37.3102 27.6016 36.6665 27.5869 35.935C27.5862 35.8968 27.583 35.8594 27.5792 35.8223C27.9305 35.7222 28.2756 35.5941 28.6114 35.4392C28.6274 35.4719 28.6439 35.5043 28.6629 35.5358C29.0258 36.1381 29.8058 36.286 30.405 35.8662C31.0042 35.4463 31.1958 34.6178 30.8329 34.0154C30.8143 33.9846 30.7939 33.9558 30.7733 33.9273C31.0386 33.6619 31.2871 33.3737 31.5168 33.0646C31.5464 33.0832 31.5766 33.1014 31.6084 33.1176ZM23.9555 33.2147C21.7266 32.083 20.913 29.2091 22.1384 26.7956C23.3638 24.3821 26.1641 23.343 28.393 24.4747C30.6219 25.6064 31.4355 28.4803 30.2101 30.8938C28.9847 33.3073 26.1844 34.3464 23.9555 33.2147Z" fill="#004EFF"/>
  <path d="M33.0977 29.5533C33.7981 29.4908 34.354 28.8472 34.3393 28.1157C34.3247 27.3842 33.745 26.8418 33.0446 26.9042C33.008 26.9075 32.972 26.9133 32.9363 26.9196C32.8631 26.5571 32.7629 26.203 32.6364 25.8602C32.6686 25.8414 32.7007 25.8219 32.732 25.8C33.3312 25.3802 34.0725 24.3658 33.6498 23.8039C32.8474 22.7375 32.017 23.1991 31.4178 23.6189C31.3871 23.6404 31.3582 23.6636 31.3297 23.6872C31.093 23.4255 30.8334 23.1831 30.5526 22.9618C30.5723 22.9294 30.5916 22.8966 30.6091 22.8622C30.7928 22.5004 30.809 22.1015 30.6877 21.7625C30.1089 22.7811 29.5379 23.8041 28.9772 24.8327C30.7553 26.1357 31.3215 28.7035 30.21 30.8926C29.2681 32.7478 27.3958 33.7894 25.5677 33.6589C25.4862 33.8704 25.4061 34.083 25.3188 34.2924C25.0818 34.8608 24.8126 35.4175 24.543 35.9735C24.7126 36.0055 24.8828 36.0306 25.0536 36.0485C25.0514 36.0855 25.0497 36.1225 25.0504 36.16C25.0651 36.8915 25.5092 37.513 26.7786 37.4457C27.4808 37.4084 27.6015 36.6654 27.5868 35.9339C27.5861 35.8957 27.5829 35.8583 27.5791 35.8211C27.9304 35.721 28.2755 35.593 28.6113 35.4381C28.6273 35.4707 28.6439 35.5031 28.6628 35.5346C29.0257 36.1369 30.2847 36.3929 30.8839 35.973C31.4831 35.5532 31.1957 34.6166 30.8328 34.0143C30.8142 33.9835 30.7939 33.9546 30.7732 33.9261C31.0385 33.6608 31.2871 33.3726 31.5167 33.0635C31.5464 33.0821 31.5765 33.1003 31.6083 33.1164C32.2223 33.4281 32.9935 33.1419 33.331 32.4772C33.6685 31.8125 33.4444 31.0209 32.8305 30.7093C32.7987 30.6931 32.7663 30.6795 32.7337 30.6665C32.8478 30.2987 32.9337 29.928 32.9914 29.5572C33.0265 29.5571 33.0618 29.5565 33.0977 29.5533Z" fill="#004EFF"/>
  <path d="M32.2685 33.1919C32.8823 33.5036 33.6536 33.2174 33.9911 32.5527C34.3286 31.888 34.1046 31.0964 33.4906 30.7847C33.4588 30.7686 33.4264 30.755 33.3938 30.7421C33.5079 30.3742 33.5939 30.0035 33.6515 29.6327C33.6867 29.6326 33.722 29.632 33.7579 29.6288C34.4583 29.5664 35.0142 28.9228 34.9995 28.1913C34.9849 27.4597 34.4052 26.9173 33.7048 26.9797C33.6682 26.983 33.6322 26.9888 33.5965 26.9952C33.5233 26.6326 33.4231 26.2785 33.2966 25.9358C33.3288 25.9169 33.3609 25.8974 33.3922 25.8755C33.9914 25.4557 34.183 24.6271 33.8201 24.0248C33.4572 23.4225 32.6772 23.2746 32.078 23.6944C32.0473 23.7159 32.0184 23.7392 31.9899 23.7627C31.7532 23.5011 31.4936 23.2586 31.2128 23.0373C31.2325 23.005 31.2518 22.9721 31.2693 22.9377C31.6068 22.273 31.3827 21.4814 30.7688 21.1698C30.1549 20.8581 29.3837 21.1442 29.0462 21.809C29.0287 21.8434 29.0136 21.8784 28.9991 21.9134C28.6547 21.8173 28.3058 21.7508 27.9549 21.7141C27.9571 21.6771 27.9588 21.6401 27.9581 21.6026C27.9434 20.8711 27.3637 20.3287 26.6633 20.3911C25.9629 20.4535 25.407 21.0972 25.4217 21.8287C25.4224 21.8669 25.4256 21.9043 25.4294 21.9414C25.0781 22.0416 24.7331 22.1696 24.3972 22.3245C24.3813 22.2919 24.3647 22.2594 24.3458 22.2279C23.9828 21.6256 23.2029 21.4777 22.6036 21.8976C22.0044 22.3174 21.8128 23.146 22.1757 23.7482C22.1943 23.7791 22.2147 23.808 22.2354 23.8364C21.97 24.1018 21.7215 24.39 21.4918 24.6991C21.4622 24.6805 21.4321 24.6623 21.4002 24.6462C20.7863 24.3344 20.0151 24.6206 19.6776 25.2854C19.3401 25.9501 19.5641 26.7416 20.178 27.0533C20.2098 27.0695 20.2423 27.083 20.2749 27.096C20.1608 27.4638 20.0748 27.8345 20.0171 28.2054C19.982 28.2055 19.9466 28.2061 19.9108 28.2092C19.2104 28.2717 18.6545 28.9153 18.6692 29.6468C18.6838 30.3784 19.2635 30.9207 19.9639 30.8583C20.0005 30.855 20.0365 30.8493 20.0722 30.8429C20.1454 31.2054 20.2456 31.5595 20.3721 31.9023C20.3399 31.9211 20.3078 31.9406 20.2765 31.9626C19.6773 32.3823 19.4857 33.211 19.8486 33.8133C20.2115 34.4156 20.9915 34.5634 21.5907 34.1437C21.6214 34.1221 21.6503 34.0989 21.6788 34.0753C21.9155 34.337 22.1751 34.5794 22.456 34.8007C22.4362 34.8331 22.4169 34.8659 22.3994 34.9003C22.0619 35.565 22.286 36.3566 22.8999 36.6683C23.5138 36.98 24.285 36.6938 24.6225 36.029C24.64 35.9946 24.6551 35.9596 24.6696 35.9246C25.014 36.0207 25.3629 36.0872 25.7138 36.1239C25.7116 36.1609 25.7099 36.1979 25.7106 36.2354C25.7253 36.9669 26.305 37.5093 27.0054 37.4469C27.7058 37.3844 28.2617 36.7408 28.247 36.0093C28.2463 35.9711 28.2431 35.9337 28.2393 35.8966C28.5906 35.7964 28.9357 35.6684 29.2715 35.5135C29.2874 35.5461 29.304 35.5786 29.323 35.61C29.6859 36.2123 30.4658 36.3603 31.0651 35.9404C31.6643 35.5206 31.8559 34.692 31.493 34.0897C31.4744 34.0589 31.454 34.03 31.4333 34.0015C31.6987 33.7362 31.9472 33.448 32.1769 33.1388C32.2065 33.1576 32.2366 33.1758 32.2685 33.1919ZM24.6156 33.289C22.3867 32.1573 21.5731 29.2834 22.7985 26.8699C24.0239 24.4565 26.8241 23.4174 29.0531 24.5491C31.282 25.6807 32.0955 28.5546 30.8702 30.9681C29.6448 33.3816 26.8445 34.4207 24.6156 33.289Z" fill="url(#paint5_linear_12030_26355)"/>
  <path d="M94.1186 22.3281C90.2088 22.3281 86.5913 23.2801 83.6441 24.8949C79.1162 27.3757 76.168 31.4235 76.168 35.9951C76.168 38.5906 77.1177 41.0172 78.7687 43.0846L77.037 47.6881C76.9011 48.049 77.1372 48.4176 77.4821 48.4838L77.4816 48.4845C77.4816 48.4845 77.4871 48.4851 77.4949 48.4859C77.5213 48.4903 77.5482 48.4929 77.5757 48.4937C77.7535 48.5096 78.1435 48.5362 78.3908 48.4929C78.3688 48.4526 78.3456 48.4113 78.3221 48.37C79.9493 48.0681 82.4223 47.614 84.0873 47.33C86.9504 48.8026 90.4022 49.6621 94.1186 49.6621C99.5677 49.6621 104.451 47.8134 107.743 44.8939C110.44 42.5035 112.069 39.3948 112.069 35.9951C112.069 28.4466 104.032 22.3281 94.1186 22.3281Z" fill="#FFF5C7"/>
  <path d="M112.818 35.9951C112.818 39.3948 111.189 42.5035 108.492 44.8939C105.2 47.8134 100.317 49.6621 94.8679 49.6621C91.1515 49.6621 87.6996 48.8026 84.8365 47.33C82.9432 47.653 80.0045 48.1959 78.4535 48.4849C77.9977 48.5699 77.6226 48.1226 77.7862 47.6881L79.518 43.0846C77.867 41.0172 76.9172 38.5906 76.9172 35.9951C76.9172 31.4235 79.8654 27.3757 84.3934 24.8949C87.3405 23.2801 90.9581 22.3281 94.8678 22.3281C104.781 22.3281 112.818 28.4466 112.818 35.9951Z" fill="#FFD400"/>
  <path opacity="0.3" d="M108.492 44.894C105.2 47.8135 100.317 49.6621 94.8679 49.6621C91.1515 49.6621 87.6996 48.8026 84.8365 47.3301C82.9432 47.6531 80.0045 48.196 78.4535 48.4849C77.9977 48.5699 77.6226 48.1227 77.7862 47.6881L79.518 43.0847C77.867 41.0172 76.9172 38.5907 76.9172 35.9952C76.9172 31.4236 79.8654 27.3758 84.3934 24.895C86.7615 25.2169 88.8173 26.0403 90.0657 27.6924C92.812 31.3312 89.714 36.435 92.5814 39.0178C95.4277 41.5793 99.978 37.9076 104.116 39.6467C105.672 40.3001 107.268 41.7609 108.492 44.894Z" fill="#FFFDF6"/>
  <path opacity="0.7" d="M90.6718 33.7605H86.5666V40.4657H90.6718V33.7605Z" fill="#FFFCED"/>
  <path opacity="0.7" d="M96.2823 30.4763H92.177V40.4657H96.2823V30.4763Z" fill="#FFFCED"/>
  <path opacity="0.7" d="M101.893 27.6028H97.7875V40.4658H101.893V27.6028Z" fill="#FFFCED"/>
  <path opacity="0.7" d="M102.577 41.8342H85.7455V43.3395H102.577V41.8342Z" fill="#FFFCED"/>
  <defs>
    <linearGradient id="paint0_linear_12030_26355" x1="70.4804" y1="87.3457" x2="70.4804" y2="97.2406" gradientUnits="userSpaceOnUse">
      <stop offset="0.494" stop-color="#EBEFF2"/>
      <stop offset="1" stop-color="white"/>
    </linearGradient>
    <linearGradient id="paint1_linear_12030_26355" x1="68.1975" y1="63.9303" x2="68.1975" y2="72.7177" gradientUnits="userSpaceOnUse">
      <stop stop-color="#004EFF"/>
      <stop offset="0.795" stop-color="#33D7D1"/>
    </linearGradient>
    <linearGradient id="paint2_linear_12030_26355" x1="57.7682" y1="50.9265" x2="75.78" y2="50.9265" gradientUnits="userSpaceOnUse">
      <stop stop-color="#444B8C"/>
      <stop offset="0.9964" stop-color="#3E4177"/>
    </linearGradient>
    <linearGradient id="paint3_linear_12030_26355" x1="65.9711" y1="71.2516" x2="65.9711" y2="80.3728" gradientUnits="userSpaceOnUse">
      <stop stop-color="#004EFF"/>
      <stop offset="0.795" stop-color="#33D7D1"/>
    </linearGradient>
    <linearGradient id="paint4_linear_12030_26355" x1="55.4697" y1="74.6767" x2="55.4697" y2="77.96" gradientUnits="userSpaceOnUse">
      <stop stop-color="#004EFF"/>
      <stop offset="0.795" stop-color="#33D7D1"/>
    </linearGradient>
    <linearGradient id="paint5_linear_12030_26355" x1="18.9302" y1="20.3862" x2="37.3223" y2="33.297" gradientUnits="userSpaceOnUse">
      <stop stop-color="#004EFF"/>
      <stop offset="0.301012" stop-color="#3371FF"/>
      <stop offset="0.901456" stop-color="#33D7D1"/>
    </linearGradient>
  </defs>
</svg>
