<svg width="64" height="64" viewBox="0 0 64 64" fill="none" xmlns="http://www.w3.org/2000/svg">
  <!-- Factory Building -->
  <rect x="8" y="28" width="24" height="24" rx="2" fill="#FFF3E0" stroke="#FF9800" stroke-width="2"/>
  <rect x="32" y="20" width="24" height="32" rx="2" fill="#FFF3E0" stroke="#FF9800" stroke-width="2"/>
  
  <!-- Windows -->
  <rect x="12" y="32" width="4" height="4" fill="#FF9800"/>
  <rect x="20" y="32" width="4" height="4" fill="#FF9800"/>
  <rect x="12" y="40" width="4" height="4" fill="#FF9800"/>
  <rect x="20" y="40" width="4" height="4" fill="#FF9800"/>
  
  <rect x="36" y="24" width="4" height="4" fill="#FF9800"/>
  <rect x="44" y="24" width="4" height="4" fill="#FF9800"/>
  <rect x="36" y="32" width="4" height="4" fill="#FF9800"/>
  <rect x="44" y="32" width="4" height="4" fill="#FF9800"/>
  <rect x="36" y="40" width="4" height="4" fill="#FF9800"/>
  <rect x="44" y="40" width="4" height="4" fill="#FF9800"/>
  
  <!-- Smokestacks -->
  <rect x="14" y="16" width="3" height="12" fill="#FF9800"/>
  <rect x="22" y="12" width="3" height="16" fill="#FF9800"/>
  <rect x="50" y="8" width="3" height="12" fill="#FF9800"/>
  
  <!-- Smoke -->
  <circle cx="15.5" cy="12" r="2" fill="#E0E0E0" opacity="0.7"/>
  <circle cx="17" cy="10" r="1.5" fill="#E0E0E0" opacity="0.5"/>
  <circle cx="23.5" cy="8" r="2" fill="#E0E0E0" opacity="0.7"/>
  <circle cx="25" cy="6" r="1.5" fill="#E0E0E0" opacity="0.5"/>
  <circle cx="51.5" cy="4" r="2" fill="#E0E0E0" opacity="0.7"/>
  <circle cx="53" cy="2" r="1.5" fill="#E0E0E0" opacity="0.5"/>
  
  <!-- Gear/Cog -->
  <g transform="translate(40, 44)">
    <circle cx="0" cy="0" r="6" fill="#FF9800"/>
    <circle cx="0" cy="0" r="3" fill="#FFF3E0"/>
    <rect x="-1" y="-8" width="2" height="3" fill="#FF9800"/>
    <rect x="-1" y="5" width="2" height="3" fill="#FF9800"/>
    <rect x="-8" y="-1" width="3" height="2" fill="#FF9800"/>
    <rect x="5" y="-1" width="3" height="2" fill="#FF9800"/>
  </g>
  
  <!-- Conveyor Belt -->
  <rect x="2" y="56" width="60" height="4" rx="2" fill="#757575"/>
  <circle cx="8" cy="58" r="2" fill="#424242"/>
  <circle cx="16" cy="58" r="2" fill="#424242"/>
  <circle cx="24" cy="58" r="2" fill="#424242"/>
  <circle cx="32" cy="58" r="2" fill="#424242"/>
  <circle cx="40" cy="58" r="2" fill="#424242"/>
  <circle cx="48" cy="58" r="2" fill="#424242"/>
  <circle cx="56" cy="58" r="2" fill="#424242"/>
</svg>
