<svg width="80" height="80" viewBox="0 0 80 80" fill="none" xmlns="http://www.w3.org/2000/svg">
  <!-- AI Brain Icon -->
  <circle cx="40" cy="40" r="35" fill="#FFE047" stroke="#ffffff" stroke-width="2"/>
  
  <!-- Brain outline -->
  <path d="M25 35c0-8 6-15 15-15s15 7 15 15c2 0 4 2 4 4s-2 4-4 4c0 8-6 15-15 15s-15-7-15-15c-2 0-4-2-4-4s2-4 4-4z" 
        fill="none" stroke="#1f2937" stroke-width="2.5" stroke-linecap="round"/>
  
  <!-- Neural network connections -->
  <circle cx="35" cy="35" r="2" fill="#1f2937"/>
  <circle cx="45" cy="35" r="2" fill="#1f2937"/>
  <circle cx="35" cy="45" r="2" fill="#1f2937"/>
  <circle cx="45" cy="45" r="2" fill="#1f2937"/>
  <circle cx="40" cy="40" r="2" fill="#1f2937"/>
  
  <!-- Connection lines -->
  <line x1="35" y1="35" x2="40" y2="40" stroke="#1f2937" stroke-width="1.5"/>
  <line x1="45" y1="35" x2="40" y2="40" stroke="#1f2937" stroke-width="1.5"/>
  <line x1="35" y1="45" x2="40" y2="40" stroke="#1f2937" stroke-width="1.5"/>
  <line x1="45" y1="45" x2="40" y2="40" stroke="#1f2937" stroke-width="1.5"/>
  
  <!-- AI Circuit pattern -->
  <rect x="30" y="50" width="8" height="2" fill="#1f2937"/>
  <rect x="42" y="50" width="8" height="2" fill="#1f2937"/>
  <rect x="33" y="28" width="6" height="2" fill="#1f2937"/>
  <rect x="41" y="28" width="6" height="2" fill="#1f2937"/>
</svg>
