<svg width="64" height="64" viewBox="0 0 64 64" fill="none" xmlns="http://www.w3.org/2000/svg">
  <!-- Small Business Building -->
  <rect x="16" y="20" width="32" height="32" rx="2" fill="#E8F5E8" stroke="#4CAF50" stroke-width="2"/>
  <rect x="20" y="24" width="6" height="6" fill="#4CAF50"/>
  <rect x="30" y="24" width="6" height="6" fill="#4CAF50"/>
  <rect x="38" y="24" width="6" height="6" fill="#4CAF50"/>
  
  <rect x="20" y="34" width="6" height="6" fill="#4CAF50"/>
  <rect x="30" y="34" width="6" height="6" fill="#4CAF50"/>
  <rect x="38" y="34" width="6" height="6" fill="#4CAF50"/>
  
  <!-- Door -->
  <rect x="26" y="42" width="8" height="10" fill="#4CAF50"/>
  <circle cx="31" cy="47" r="1" fill="#E8F5E8"/>
  
  <!-- Family Icon -->
  <circle cx="14" cy="12" r="3" fill="#FF9800"/>
  <circle cx="24" cy="10" r="4" fill="#FF9800"/>
  <circle cx="34" cy="12" r="3" fill="#FF9800"/>
  <circle cx="44" cy="11" r="3.5" fill="#FF9800"/>
  
  <!-- Growth Chart -->
  <path d="M8 56 L12 52 L16 54 L20 48 L24 50 L28 44" stroke="#FF5722" stroke-width="2" fill="none"/>
  <circle cx="8" cy="56" r="2" fill="#FF5722"/>
  <circle cx="12" cy="52" r="2" fill="#FF5722"/>
  <circle cx="16" cy="54" r="2" fill="#FF5722"/>
  <circle cx="20" cy="48" r="2" fill="#FF5722"/>
  <circle cx="24" cy="50" r="2" fill="#FF5722"/>
  <circle cx="28" cy="44" r="2" fill="#FF5722"/>
</svg>
